G04 DipTrace 3.3.1.1*
G04 BottomSilk.gbr*
%MOIN*%
G04 #@! TF.FileFunction,Legend,Bot*
G04 #@! TF.Part,Single*
%ADD10C,0.009843*%
%ADD15C,0.003937*%
%ADD26C,0.01181*%
%ADD66C,0.00772*%
%FSLAX26Y26*%
G04*
G70*
G90*
G75*
G01*
G04 BotSilk*
%LPD*%
X984268Y1984983D2*
D10*
X787386D1*
Y1876735D1*
X984268Y1984983D2*
Y1983040D1*
Y1853087D2*
Y1601119D1*
X787386Y1746781D2*
Y1512577D1*
X950793D1*
X964557Y2044047D2*
X807096D1*
X964557D2*
Y1984983D1*
X807096Y2044047D2*
Y1984983D1*
X2413390Y1665340D2*
Y1444899D1*
X2377959Y1421274D2*
X2346451D1*
X2413390Y1551198D2*
X2472441D1*
Y1503947D1*
X2413390D1*
Y1551198D1*
X2377959Y1688965D2*
X2346451D1*
X2311020Y1618121D2*
Y1551198D1*
X2389769Y1537376D2*
D15*
Y1580706D1*
X2377959Y1564955D1*
X2389769Y1580706D2*
X2401580Y1564955D1*
D26*
X2277551Y1671254D3*
X401571Y1444899D2*
D10*
Y1665340D1*
X437002Y1688965D2*
X468509D1*
X401571Y1559041D2*
X342520D1*
Y1606292D1*
X401571D1*
Y1559041D1*
X437002Y1421274D2*
X468509D1*
X503940Y1492118D2*
Y1559041D1*
X425191Y1572863D2*
D15*
Y1529533D1*
X437002Y1545284D1*
X425191Y1529533D2*
X413381Y1545284D1*
D26*
X537409Y1438985D3*
X1169602Y1679770D2*
D66*
Y1641524D1*
X1171978Y1634339D1*
X1174410Y1631962D1*
X1179163Y1629530D1*
X1183972D1*
X1188725Y1631962D1*
X1191102Y1634339D1*
X1193533Y1641524D1*
Y1646277D1*
X1115861Y1629530D2*
X1135039Y1679770D1*
X1154162Y1629530D1*
X1146977Y1646277D2*
X1123046D1*
X1064551Y1667832D2*
X1066928Y1672585D1*
X1071736Y1677394D1*
X1076490Y1679770D1*
X1086051D1*
X1090860Y1677394D1*
X1095613Y1672585D1*
X1098045Y1667832D1*
X1100421Y1660647D1*
Y1648654D1*
X1098045Y1641524D1*
X1095613Y1636715D1*
X1090860Y1631962D1*
X1086051Y1629530D1*
X1076490D1*
X1071736Y1631962D1*
X1066928Y1636715D1*
X1064551Y1641524D1*
X1049112Y1679770D2*
Y1629530D1*
X1015619Y1679770D2*
X1049112Y1646277D1*
X1037174Y1658270D2*
X1015619Y1629530D1*
X2346731Y1784543D2*
X2351484Y1789352D1*
X2358669Y1791728D1*
X2368231D1*
X2375416Y1789352D1*
X2380225Y1784543D1*
Y1779790D1*
X2377793Y1774982D1*
X2375416Y1772605D1*
X2370663Y1770228D1*
X2356293Y1765420D1*
X2351484Y1763043D1*
X2349108Y1760612D1*
X2346731Y1755858D1*
Y1748673D1*
X2351484Y1743920D1*
X2358669Y1741488D1*
X2368231D1*
X2375416Y1743920D1*
X2380225Y1748673D1*
X2331292Y1791728D2*
X2319299Y1741488D1*
X2307360Y1791728D1*
X2295422Y1741488D1*
X2283429Y1791728D1*
X2267989Y1782111D2*
X2263181Y1784543D1*
X2255996Y1791673D1*
Y1741488D1*
X661221Y1553293D2*
X665975Y1558101D1*
X673160Y1560478D1*
X682721D1*
X689906Y1558101D1*
X694715Y1553293D1*
Y1548539D1*
X692283Y1543731D1*
X689906Y1541354D1*
X685153Y1538978D1*
X670783Y1534169D1*
X665975Y1531793D1*
X663598Y1529361D1*
X661221Y1524608D1*
Y1517423D1*
X665975Y1512670D1*
X673160Y1510238D1*
X682721D1*
X689906Y1512670D1*
X694715Y1517423D1*
X645782Y1560478D2*
X633789Y1510238D1*
X621850Y1560478D1*
X609912Y1510238D1*
X597919Y1560478D1*
X580048Y1548484D2*
Y1550861D1*
X577671Y1555669D1*
X575294Y1558046D1*
X570486Y1560422D1*
X560924D1*
X556171Y1558046D1*
X553795Y1555669D1*
X551363Y1550861D1*
Y1546108D1*
X553795Y1541299D1*
X558548Y1534169D1*
X582479Y1510238D1*
X548986D1*
X2266812Y1456365D2*
X2245256D1*
X2238127Y1458741D1*
X2235695Y1461173D1*
X2233318Y1465927D1*
Y1473112D1*
X2235695Y1477865D1*
X2238127Y1480297D1*
X2245256Y1482673D1*
X2266812D1*
Y1432433D1*
X2203509Y1482673D2*
X2208317Y1480297D1*
X2213071Y1475488D1*
X2215502Y1470735D1*
X2217879Y1463550D1*
Y1451556D1*
X2215502Y1444427D1*
X2213071Y1439618D1*
X2208317Y1434865D1*
X2203509Y1432433D1*
X2193947D1*
X2189194Y1434865D1*
X2184386Y1439618D1*
X2182009Y1444427D1*
X2179632Y1451556D1*
Y1463550D1*
X2182009Y1470735D1*
X2184386Y1475488D1*
X2189194Y1480297D1*
X2193947Y1482673D1*
X2203509D1*
X2147447D2*
Y1432433D1*
X2164193Y1482673D2*
X2130700D1*
X2115261Y1473056D2*
X2110452Y1475488D1*
X2103267Y1482618D1*
Y1432433D1*
X834943Y1387616D2*
X813388D1*
X806259Y1389992D1*
X803827Y1392424D1*
X801450Y1397177D1*
Y1404362D1*
X803827Y1409115D1*
X806259Y1411547D1*
X813388Y1413924D1*
X834943D1*
Y1363684D1*
X771641Y1413924D2*
X776449Y1411547D1*
X781202Y1406739D1*
X783634Y1401986D1*
X786011Y1394801D1*
Y1382807D1*
X783634Y1375677D1*
X781202Y1370869D1*
X776449Y1366116D1*
X771641Y1363684D1*
X762079D1*
X757326Y1366116D1*
X752517Y1370869D1*
X750141Y1375677D1*
X747764Y1382807D1*
Y1394801D1*
X750141Y1401986D1*
X752517Y1406739D1*
X757326Y1411547D1*
X762079Y1413924D1*
X771641D1*
X715578D2*
Y1363684D1*
X732325Y1413924D2*
X698832D1*
X680961Y1401930D2*
Y1404307D1*
X678584Y1409115D1*
X676207Y1411492D1*
X671399Y1413869D1*
X661837D1*
X657084Y1411492D1*
X654708Y1409115D1*
X652276Y1404307D1*
Y1399554D1*
X654708Y1394745D1*
X659461Y1387616D1*
X683392Y1363684D1*
X649899D1*
M02*
