M48
INCH
T01C0.0315
T02C0.0354
T03C0.0394
T04C0.1654
%
T04
X+005512Y+006299
X+009449Y+006299
X+013976Y+006299
X+018504Y+006299
X+022441Y+006299
T03
X+008858Y+018669
X+008858Y+016307
T02
X+023622Y+016142
X+023622Y+014961
X+004528Y+014961
X+004528Y+016142
T03
X+022835Y+008051
X+022835Y+012894
X+011398Y+019134
X+016240Y+019134
X+005315Y+013209
X+005315Y+008366
T01
X+013976Y+015049
X+016914Y+016674
X+021351Y+014674
T00
M30
