G04 DipTrace 3.3.1.1*
G04 BottomMask.gbr*
%MOIN*%
G04 #@! TF.FileFunction,Soldermask,Bot*
G04 #@! TF.Part,Single*
%ADD34C,0.066929*%
%ADD35C,0.035433*%
%ADD36C,0.03937*%
%ADD41R,0.03937X0.047244*%
%ADD44R,0.062992X0.055118*%
%ADD46R,0.062992X0.066929*%
%ADD49R,0.066929X0.035433*%
%ADD53R,0.11811X0.094488*%
%ADD55R,0.11811X0.11811*%
%ADD61C,0.257874*%
%FSLAX26Y26*%
G04*
G70*
G90*
G75*
G01*
G04 BotMask*
%LPD*%
D61*
X551181Y629923D3*
X944882D3*
X1397638D3*
X1850394D3*
X2244094D3*
D55*
X1031575Y1547984D3*
D53*
X740079Y1839323D3*
X1031417Y1918063D3*
D34*
X885748Y1874756D3*
Y1599165D3*
D49*
X2293307Y1643702D3*
Y1525592D3*
Y1466537D3*
D41*
X2318898Y1698820D3*
X2405512D3*
X2318898Y1411419D3*
X2405512D3*
D35*
X2362205Y1614175D3*
Y1496064D3*
D49*
X521654Y1466537D3*
Y1584647D3*
Y1643702D3*
D41*
X496063Y1411419D3*
X409449D3*
X496063Y1698820D3*
X409449D3*
D35*
X452756Y1496064D3*
Y1614175D3*
D46*
X2381890Y1379923D3*
Y746064D3*
D44*
X1988189Y1062993D3*
Y1141734D3*
Y984253D3*
Y905513D3*
Y1220474D3*
D36*
X2283465Y805119D3*
Y1289371D3*
X1139764Y1913387D3*
X1624016D3*
D46*
X433071Y746064D3*
Y1379923D3*
D44*
X826772Y1062993D3*
Y984253D3*
Y1141734D3*
Y1220474D3*
Y905513D3*
D36*
X531496Y1320867D3*
Y836615D3*
M02*
