G04 DipTrace 3.3.1.1*
G04 Bottom.gbr*
%MOIN*%
G04 #@! TF.FileFunction,Copper,L2,Bot*
G04 #@! TF.Part,Single*
G04 #@! TA.AperFunction,CopperBalancing*
%ADD14C,0.023622*%
G04 #@! TA.AperFunction,ComponentPad*
%ADD17C,0.25*%
%ADD21R,0.110236X0.110236*%
%ADD22R,0.110236X0.086614*%
%ADD26R,0.059055X0.027559*%
%ADD27R,0.031496X0.03937*%
%ADD28R,0.055118X0.059055*%
%ADD29R,0.055118X0.047244*%
G04 #@! TA.AperFunction,ViaPad*
%ADD32C,0.047244*%
%FSLAX26Y26*%
G04*
G70*
G90*
G75*
G01*
G04 Bottom*
%LPD*%
X1988189Y1141734D2*
D14*
X1853199D1*
X1672638Y961172D1*
Y807678D1*
X1850394Y629923D1*
X826772Y1220474D2*
X781938D1*
X716387Y1154923D1*
Y858417D1*
X944882Y629923D1*
X1988189Y905513D2*
X1722638D1*
X2293307Y1525592D2*
X2255807D1*
X2160138Y1429923D1*
Y961173D1*
X2097638Y898673D1*
X1995029D1*
X1988189Y905513D1*
X521654Y1584647D2*
X780413D1*
X960138Y1404923D1*
X1378887D1*
X1472638Y1498673D1*
X521654Y1466537D2*
X811024D1*
X935138Y1342423D1*
X1447638D1*
X1822638Y1717423D1*
X2293307Y1466537D2*
X2278003D1*
X2228887Y1417423D1*
X826772Y984253D2*
X1043307D1*
X1397638Y629923D1*
X1031575Y1547984D2*
X1031417D1*
X740079Y1839323D1*
Y1791114D1*
X591387Y1642423D1*
X522933D1*
X521654Y1643702D1*
D32*
X1722638Y905513D3*
X1472638Y1498673D3*
X1822638Y1717423D3*
X2228887Y1417423D3*
X471232Y1985959D2*
D14*
X2343717D1*
X449988Y1962469D2*
X1110305D1*
X1169215D2*
X1594563D1*
X1653472D2*
X2364996D1*
X439115Y1938978D2*
X855922D1*
X915550D2*
X1087519D1*
X1192001D2*
X1571776D1*
X1676258D2*
X2375833D1*
X434989Y1915487D2*
X646215D1*
X944831D2*
X1081383D1*
X1198138D2*
X1565640D1*
X1682395D2*
X2379996D1*
X433876Y1891996D2*
X646215D1*
X955776D2*
X1085581D1*
X1193939D2*
X1569838D1*
X1678196D2*
X2381108D1*
X433876Y1868505D2*
X646215D1*
X957678D2*
X1103810D1*
X1175710D2*
X1588067D1*
X1659967D2*
X2381108D1*
X433876Y1845014D2*
X646215D1*
X951290D2*
X2381108D1*
X433876Y1821524D2*
X646215D1*
X933312D2*
X2381108D1*
X433876Y1798033D2*
X646215D1*
X851891D2*
X2381108D1*
X433876Y1774542D2*
X646215D1*
X875359D2*
X1801901D1*
X1843371D2*
X2381108D1*
X550536Y1751051D2*
X629493D1*
X898863D2*
X1770574D1*
X1874698D2*
X2264413D1*
X550536Y1727560D2*
X606025D1*
X922368D2*
X1761137D1*
X1884136D2*
X2264413D1*
X550536Y1704070D2*
X582521D1*
X945836D2*
X1738781D1*
X1883490D2*
X2264413D1*
X969340Y1680579D2*
X1715277D1*
X1872366D2*
X2225048D1*
X992808Y1657088D2*
X1691809D1*
X1832821D2*
X2225048D1*
X1125436Y1633597D2*
X1668305D1*
X1809317D2*
X2225048D1*
X1125436Y1610106D2*
X1644800D1*
X1785849D2*
X2225048D1*
X1125436Y1586615D2*
X1621332D1*
X1762345D2*
X2313287D1*
X1125436Y1563125D2*
X1597828D1*
X1738841D2*
X2223218D1*
X1125436Y1539634D2*
X1426445D1*
X1518835D2*
X1574324D1*
X1715372D2*
X2199355D1*
X1125436Y1516143D2*
X1412881D1*
X1532399D2*
X1550856D1*
X1691868D2*
X2175850D1*
X1125436Y1492652D2*
X1396123D1*
X1668364D2*
X2152346D1*
X1125436Y1469161D2*
X1372619D1*
X1644896D2*
X2128878D1*
X1621392Y1445671D2*
X2112228D1*
X1597923Y1422180D2*
X2109572D1*
X550536Y1398689D2*
X808376D1*
X1574419D2*
X2109572D1*
X550536Y1375198D2*
X831844D1*
X1550915D2*
X2109572D1*
X580678Y1351707D2*
X855348D1*
X1527447D2*
X2109572D1*
X2210682D2*
X2315583D1*
X589434Y1328217D2*
X878817D1*
X1503943D2*
X2109572D1*
X2210682D2*
X2240693D1*
X433876Y1304726D2*
X475442D1*
X587532D2*
X902751D1*
X1480008D2*
X2109572D1*
X2210682D2*
X2227201D1*
X2339757D2*
X2381108D1*
X433876Y1281235D2*
X489473D1*
X573502D2*
X2109572D1*
X2210682D2*
X2225622D1*
X2341300D2*
X2381108D1*
X433876Y1257744D2*
X749023D1*
X893086D2*
X1921898D1*
X2054478D2*
X2109572D1*
X2210682D2*
X2234808D1*
X2332114D2*
X2381108D1*
X433876Y1234253D2*
X725196D1*
X893086D2*
X1921898D1*
X2054478D2*
X2109572D1*
X2210682D2*
X2270836D1*
X2296086D2*
X2381108D1*
X433876Y1210762D2*
X701728D1*
X893086D2*
X1921898D1*
X2054478D2*
X2109572D1*
X2210682D2*
X2381108D1*
X433876Y1187272D2*
X678296D1*
X893086D2*
X1835058D1*
X2054478D2*
X2109572D1*
X2210682D2*
X2381108D1*
X433876Y1163781D2*
X666669D1*
X893086D2*
X1804736D1*
X2054478D2*
X2109572D1*
X2210682D2*
X2381108D1*
X433876Y1140290D2*
X665844D1*
X772264D2*
X1781232D1*
X2054478D2*
X2109572D1*
X2210682D2*
X2381108D1*
X433876Y1116799D2*
X665844D1*
X893086D2*
X1757764D1*
X2054478D2*
X2109572D1*
X2210682D2*
X2381108D1*
X433876Y1093308D2*
X665844D1*
X893086D2*
X1734260D1*
X1875272D2*
X1921898D1*
X2054478D2*
X2109572D1*
X2210682D2*
X2381108D1*
X433876Y1069818D2*
X665844D1*
X893086D2*
X1710756D1*
X1851804D2*
X1921898D1*
X2054478D2*
X2109572D1*
X2210682D2*
X2381108D1*
X433876Y1046327D2*
X665844D1*
X893086D2*
X1687287D1*
X1828300D2*
X1921898D1*
X2054478D2*
X2109572D1*
X2210682D2*
X2381108D1*
X433876Y1022836D2*
X665844D1*
X1074552D2*
X1663783D1*
X1804832D2*
X1921898D1*
X2054478D2*
X2109572D1*
X2210682D2*
X2381108D1*
X433876Y999345D2*
X665844D1*
X1098738D2*
X1640315D1*
X1781327D2*
X2109572D1*
X2210682D2*
X2381108D1*
X433876Y975854D2*
X665844D1*
X1122207D2*
X1624382D1*
X1757823D2*
X2104297D1*
X2210682D2*
X2381108D1*
X433876Y952364D2*
X665844D1*
X1145711D2*
X1622086D1*
X2054478D2*
X2080829D1*
X2209892D2*
X2381108D1*
X433876Y928873D2*
X665844D1*
X893086D2*
X1028167D1*
X1169215D2*
X1622086D1*
X2198266D2*
X2381108D1*
X433876Y905382D2*
X665844D1*
X893086D2*
X1051671D1*
X1192683D2*
X1622086D1*
X2174869D2*
X2381108D1*
X433876Y881891D2*
X496076D1*
X566935D2*
X665844D1*
X893086D2*
X1075175D1*
X1216187D2*
X1622086D1*
X2151365D2*
X2381108D1*
X433876Y858400D2*
X477488D1*
X585523D2*
X665844D1*
X893086D2*
X1098643D1*
X1239656D2*
X1622086D1*
X2126462D2*
X2263659D1*
X2303263D2*
X2381108D1*
X433876Y834909D2*
X473110D1*
X589901D2*
X671944D1*
X810409D2*
X1122147D1*
X1263160D2*
X1622086D1*
X1723195D2*
X2233624D1*
X2333334D2*
X2381108D1*
X583944Y811419D2*
X692865D1*
X833913D2*
X1145615D1*
X1286664D2*
X1622086D1*
X1739415D2*
X2225407D1*
X561660Y787928D2*
X716369D1*
X857381D2*
X909713D1*
X980069D2*
X1169120D1*
X1310132D2*
X1362464D1*
X1432820D2*
X1626320D1*
X1762883D2*
X1815214D1*
X1885571D2*
X2208900D1*
X499365Y764437D2*
X739873D1*
X1036408D2*
X1192624D1*
X1489158D2*
X1645375D1*
X1941909D2*
X2152562D1*
X499365Y740946D2*
X763341D1*
X1064361D2*
X1216092D1*
X1517112D2*
X1668843D1*
X1969863D2*
X2124608D1*
X499365Y717455D2*
X786845D1*
X1082806D2*
X1239596D1*
X1535592D2*
X1692347D1*
X1988343D2*
X2106163D1*
X499365Y693965D2*
X794381D1*
X1095365D2*
X1247132D1*
X1548116D2*
X1699918D1*
X2000867D2*
X2093604D1*
X433876Y670474D2*
X786307D1*
X1103439D2*
X1239058D1*
X1556190D2*
X1691845D1*
X2008941D2*
X2085530D1*
X433876Y646983D2*
X782037D1*
X1107709D2*
X1234788D1*
X1560460D2*
X1687574D1*
X2013247D2*
X2081260D1*
X433876Y623492D2*
X781283D1*
X1108499D2*
X1234034D1*
X1561250D2*
X1686785D1*
X2014000D2*
X2080470D1*
X433876Y600001D2*
X783939D1*
X1105808D2*
X1236690D1*
X1558594D2*
X1689440D1*
X2011345D2*
X2083162D1*
X433876Y576511D2*
X790254D1*
X1099528D2*
X1243005D1*
X1552279D2*
X1695756D1*
X2005029D2*
X2089441D1*
X433876Y553020D2*
X800661D1*
X1089121D2*
X1253412D1*
X1541872D2*
X1706162D1*
X1994623D2*
X2099848D1*
X434450Y529529D2*
X816163D1*
X1073584D2*
X1268914D1*
X1526334D2*
X1721700D1*
X1979121D2*
X2115386D1*
X437536Y506038D2*
X839093D1*
X1050654D2*
X1291844D1*
X1503404D2*
X1744630D1*
X1956191D2*
X2138316D1*
X2349876D2*
X2377412D1*
X447189Y482547D2*
X876771D1*
X1013011D2*
X1329522D1*
X1465762D2*
X1782273D1*
X1918513D2*
X2175994D1*
X2312198D2*
X2367795D1*
X465921Y459056D2*
X2349028D1*
X507223Y435566D2*
X2307725D1*
X1105998Y620741D2*
X1105215Y611590D1*
X1103912Y602497D1*
X1102094Y593494D1*
X1099767Y584608D1*
X1096938Y575870D1*
X1093617Y567306D1*
X1089813Y558946D1*
X1085540Y550815D1*
X1080812Y542941D1*
X1075643Y535348D1*
X1070050Y528062D1*
X1064052Y521105D1*
X1057668Y514501D1*
X1050919Y508272D1*
X1043826Y502436D1*
X1036413Y497013D1*
X1028703Y492021D1*
X1020721Y487475D1*
X1012494Y483391D1*
X1004048Y479782D1*
X995410Y476659D1*
X986608Y474032D1*
X977671Y471911D1*
X968628Y470301D1*
X959509Y469209D1*
X950341Y468637D1*
X941156Y468588D1*
X931983Y469061D1*
X922852Y470055D1*
X913792Y471568D1*
X904833Y473593D1*
X896004Y476125D1*
X887333Y479155D1*
X878849Y482673D1*
X870578Y486668D1*
X862548Y491128D1*
X854785Y496037D1*
X847314Y501380D1*
X840158Y507139D1*
X833342Y513296D1*
X826888Y519831D1*
X820815Y526722D1*
X815145Y533948D1*
X809895Y541485D1*
X805082Y549308D1*
X800722Y557392D1*
X796829Y565711D1*
X793415Y574239D1*
X790492Y582946D1*
X788070Y591806D1*
X786155Y600790D1*
X784755Y609867D1*
X783873Y619010D1*
X783513Y628188D1*
X783676Y637372D1*
X784361Y646531D1*
X785566Y655637D1*
X787287Y664660D1*
X789518Y673569D1*
X792253Y682338D1*
X795483Y690937D1*
X801959Y704735D1*
X682312Y824342D1*
X677401Y830092D1*
X673450Y836540D1*
X670557Y843526D1*
X668791Y850879D1*
X668199Y858432D1*
X668347Y1158703D1*
X669530Y1166172D1*
X671866Y1173364D1*
X675299Y1180101D1*
X679744Y1186219D1*
X701800Y1208485D1*
X750642Y1257117D1*
X756760Y1261562D1*
X760074Y1263417D1*
X762835Y1270710D1*
Y1280474D1*
X890709D1*
Y1160474D1*
X790030Y1160416D1*
X764580Y1134966D1*
X764576Y1123022D1*
X890709Y1122993D1*
Y1032447D1*
X1047088Y1032294D1*
X1054557Y1031111D1*
X1061748Y1028774D1*
X1068486Y1025341D1*
X1074603Y1020897D1*
X1096869Y998841D1*
X1322824Y772886D1*
X1336862Y779419D1*
X1345466Y782634D1*
X1354238Y785355D1*
X1363152Y787573D1*
X1372177Y789279D1*
X1381285Y790470D1*
X1390445Y791140D1*
X1399629Y791288D1*
X1408807Y790914D1*
X1417948Y790017D1*
X1427023Y788603D1*
X1436004Y786674D1*
X1444860Y784237D1*
X1453563Y781300D1*
X1462085Y777873D1*
X1470398Y773967D1*
X1478475Y769594D1*
X1486291Y764769D1*
X1493819Y759507D1*
X1501036Y753825D1*
X1507917Y747741D1*
X1514442Y741276D1*
X1520588Y734450D1*
X1526336Y727286D1*
X1531667Y719806D1*
X1536564Y712035D1*
X1541010Y703998D1*
X1544992Y695721D1*
X1548497Y687231D1*
X1551513Y678555D1*
X1554031Y669722D1*
X1556042Y660760D1*
X1557540Y651698D1*
X1558520Y642565D1*
X1559016Y629923D1*
X1558754Y620741D1*
X1557971Y611590D1*
X1556668Y602497D1*
X1554850Y593494D1*
X1552523Y584608D1*
X1549694Y575870D1*
X1546373Y567306D1*
X1542569Y558946D1*
X1538296Y550815D1*
X1533568Y542941D1*
X1528399Y535348D1*
X1522806Y528062D1*
X1516808Y521105D1*
X1510424Y514501D1*
X1503675Y508272D1*
X1496582Y502436D1*
X1489169Y497013D1*
X1481459Y492021D1*
X1473477Y487475D1*
X1465250Y483391D1*
X1456804Y479782D1*
X1448166Y476659D1*
X1439364Y474032D1*
X1430427Y471911D1*
X1421384Y470301D1*
X1412264Y469209D1*
X1403097Y468637D1*
X1393912Y468588D1*
X1384739Y469061D1*
X1375608Y470055D1*
X1366548Y471568D1*
X1357589Y473593D1*
X1348760Y476125D1*
X1340089Y479155D1*
X1331605Y482673D1*
X1323334Y486668D1*
X1315304Y491128D1*
X1307541Y496037D1*
X1300069Y501380D1*
X1292914Y507139D1*
X1286098Y513296D1*
X1279644Y519831D1*
X1273571Y526722D1*
X1267901Y533948D1*
X1262650Y541485D1*
X1257838Y549308D1*
X1253478Y557392D1*
X1249585Y565711D1*
X1246171Y574239D1*
X1243248Y582946D1*
X1240826Y591806D1*
X1238911Y600790D1*
X1237511Y609867D1*
X1236629Y619010D1*
X1236269Y628188D1*
X1236432Y637372D1*
X1237117Y646531D1*
X1238322Y655637D1*
X1240043Y664660D1*
X1242274Y673569D1*
X1245009Y682338D1*
X1248239Y690937D1*
X1254715Y704735D1*
X1023324Y936087D1*
X890692Y936064D1*
X890709Y845513D1*
X797446D1*
X870049Y772905D1*
X884106Y779419D1*
X892710Y782634D1*
X901483Y785355D1*
X910396Y787573D1*
X919421Y789279D1*
X928529Y790470D1*
X937689Y791140D1*
X946873Y791288D1*
X956051Y790914D1*
X965192Y790017D1*
X974268Y788603D1*
X983248Y786674D1*
X992104Y784237D1*
X1000807Y781300D1*
X1009329Y777873D1*
X1017642Y773967D1*
X1025719Y769594D1*
X1033535Y764769D1*
X1041063Y759507D1*
X1048280Y753825D1*
X1055162Y747741D1*
X1061686Y741276D1*
X1067832Y734450D1*
X1073580Y727286D1*
X1078911Y719806D1*
X1083808Y712035D1*
X1088254Y703998D1*
X1092237Y695721D1*
X1095741Y687231D1*
X1098757Y678555D1*
X1101275Y669722D1*
X1103286Y660760D1*
X1104784Y651698D1*
X1105764Y642565D1*
X1106260Y629923D1*
X1105998Y620741D1*
X2011510D2*
X2010727Y611590D1*
X2009424Y602497D1*
X2007606Y593494D1*
X2005279Y584608D1*
X2002450Y575870D1*
X1999129Y567306D1*
X1995325Y558946D1*
X1991052Y550815D1*
X1986324Y542941D1*
X1981155Y535348D1*
X1975562Y528062D1*
X1969564Y521105D1*
X1963180Y514501D1*
X1956431Y508272D1*
X1949338Y502436D1*
X1941924Y497013D1*
X1934214Y492021D1*
X1926233Y487475D1*
X1918006Y483391D1*
X1909559Y479782D1*
X1900922Y476659D1*
X1892120Y474032D1*
X1883183Y471911D1*
X1874140Y470301D1*
X1865020Y469209D1*
X1855853Y468637D1*
X1846668Y468588D1*
X1837495Y469061D1*
X1828364Y470055D1*
X1819304Y471568D1*
X1810345Y473593D1*
X1801516Y476125D1*
X1792845Y479155D1*
X1784360Y482673D1*
X1776090Y486668D1*
X1768060Y491128D1*
X1760297Y496037D1*
X1752825Y501380D1*
X1745670Y507139D1*
X1738854Y513296D1*
X1732400Y519831D1*
X1726327Y526722D1*
X1720657Y533948D1*
X1715406Y541485D1*
X1710593Y549308D1*
X1706233Y557392D1*
X1702340Y565711D1*
X1698927Y574239D1*
X1696004Y582946D1*
X1693582Y591806D1*
X1691667Y600790D1*
X1690267Y609867D1*
X1689385Y619010D1*
X1689025Y628188D1*
X1689188Y637372D1*
X1689873Y646531D1*
X1691078Y655637D1*
X1692799Y664660D1*
X1695030Y673569D1*
X1697765Y682338D1*
X1700994Y690937D1*
X1707471Y704735D1*
X1635995Y776382D1*
X1631550Y782500D1*
X1628117Y789237D1*
X1625780Y796429D1*
X1624597Y803898D1*
X1624449Y835238D1*
X1624597Y964953D1*
X1625780Y972421D1*
X1628117Y979613D1*
X1631550Y986351D1*
X1635995Y992468D1*
X1658050Y1014734D1*
X1821903Y1178377D1*
X1828021Y1182822D1*
X1834758Y1186254D1*
X1841950Y1188591D1*
X1849419Y1189774D1*
X1880759Y1189923D1*
X1924286D1*
X1924252Y1280474D1*
X2052126D1*
Y1002993D1*
X1924252D1*
Y1093529D1*
X1873180Y1093545D1*
X1741958Y962342D1*
X1749877Y958974D1*
X1757905Y954054D1*
X1758353Y953701D1*
X1924271Y953702D1*
X1924252Y965513D1*
X2052126D1*
Y946889D1*
X2077670Y946862D1*
X2111951Y981136D1*
X2112097Y1433703D1*
X2113280Y1441172D1*
X2115617Y1448364D1*
X2119050Y1455101D1*
X2123494Y1461219D1*
X2145550Y1483485D1*
X2224522Y1562244D1*
X2227402Y1567298D1*
Y1575749D1*
X2323954Y1575924D1*
X2318441Y1582379D1*
X2314006Y1589616D1*
X2312199Y1593551D1*
X2227402Y1593545D1*
Y1693860D1*
X2266767D1*
X2266772Y1754883D1*
X2383465Y1754984D1*
Y1906957D1*
X2379742Y1935248D1*
X2369784Y1959289D1*
X2353944Y1979931D1*
X2333299Y1995771D1*
X2309260Y2005727D1*
X2280998Y2009448D1*
X533976Y2009450D1*
X505698Y2005727D1*
X481658Y1995769D1*
X461014Y1979928D1*
X445176Y1959285D1*
X435218Y1935244D1*
X431499Y1906982D1*
X431497Y1754915D1*
X548189Y1754883D1*
Y1693844D1*
X574704Y1693859D1*
X648582Y1767768D1*
X648583Y1919008D1*
X831575Y1918828D1*
X836362Y1924142D1*
X844696Y1931260D1*
X854040Y1936986D1*
X864166Y1941180D1*
X874822Y1943739D1*
X885748Y1944598D1*
X896674Y1943739D1*
X907331Y1941180D1*
X917456Y1936986D1*
X926800Y1931260D1*
X935134Y1924142D1*
X942252Y1915808D1*
X947978Y1906464D1*
X952172Y1896338D1*
X954731Y1885682D1*
X955591Y1874756D1*
X954731Y1863830D1*
X952172Y1853173D1*
X947978Y1843048D1*
X942252Y1833704D1*
X935134Y1825370D1*
X926800Y1818252D1*
X917456Y1812526D1*
X907331Y1808332D1*
X896674Y1805773D1*
X885748Y1804913D1*
X874822Y1805773D1*
X864166Y1808332D1*
X854040Y1812526D1*
X844696Y1818252D1*
X836362Y1825370D1*
X831565Y1830759D1*
X831575Y1815984D1*
X1008076Y1639475D1*
X1123071Y1639480D1*
Y1456488D1*
X976881Y1456328D1*
X980104Y1453106D1*
X1358919Y1453112D1*
X1413297Y1507482D1*
X1414296Y1512680D1*
X1417205Y1521634D1*
X1421479Y1530023D1*
X1427013Y1537640D1*
X1433671Y1544298D1*
X1441288Y1549832D1*
X1449677Y1554106D1*
X1458631Y1557015D1*
X1467930Y1558488D1*
X1477345D1*
X1486645Y1557015D1*
X1495599Y1554106D1*
X1503988Y1549832D1*
X1511605Y1544298D1*
X1518262Y1537640D1*
X1523796Y1530023D1*
X1528071Y1521634D1*
X1530980Y1512680D1*
X1532453Y1503381D1*
X1532511Y1495455D1*
X1763292Y1726227D1*
X1764296Y1731429D1*
X1767205Y1740384D1*
X1771479Y1748772D1*
X1777013Y1756389D1*
X1783671Y1763047D1*
X1791288Y1768581D1*
X1799677Y1772855D1*
X1808631Y1775765D1*
X1817930Y1777238D1*
X1827345D1*
X1836645Y1775765D1*
X1845599Y1772855D1*
X1853988Y1768581D1*
X1861605Y1763047D1*
X1868262Y1756389D1*
X1873796Y1748772D1*
X1878071Y1740384D1*
X1880980Y1731429D1*
X1882453Y1722130D1*
Y1712715D1*
X1880980Y1703416D1*
X1878071Y1694462D1*
X1873796Y1686073D1*
X1868262Y1678456D1*
X1861605Y1671798D1*
X1853988Y1666264D1*
X1845599Y1661990D1*
X1836645Y1659080D1*
X1831457Y1658094D1*
X1478934Y1305779D1*
X1472817Y1301335D1*
X1466079Y1297902D1*
X1458887Y1295565D1*
X1451419Y1294382D1*
X1420079Y1294234D1*
X931357Y1294382D1*
X923888Y1295565D1*
X916697Y1297902D1*
X909959Y1301335D1*
X903842Y1305779D1*
X881576Y1327835D1*
X791067Y1418344D1*
X587573Y1418348D1*
X587559Y1416379D1*
X548194D1*
X548189Y1374362D1*
X552950Y1372663D1*
X560789Y1368669D1*
X567906Y1363498D1*
X574127Y1357277D1*
X579298Y1350160D1*
X583292Y1342322D1*
X586010Y1333955D1*
X587386Y1325266D1*
Y1316469D1*
X586010Y1307780D1*
X583292Y1299413D1*
X579298Y1291575D1*
X574127Y1284457D1*
X567906Y1278237D1*
X560789Y1273066D1*
X552950Y1269072D1*
X544584Y1266353D1*
X535895Y1264977D1*
X527097D1*
X518408Y1266353D1*
X510042Y1269072D1*
X502203Y1273066D1*
X495086Y1278237D1*
X488865Y1284457D1*
X483695Y1291575D1*
X479701Y1299413D1*
X476982Y1307780D1*
X475895Y1314027D1*
X431519Y1314017D1*
X431496Y811951D1*
X481128Y811970D1*
X478177Y819291D1*
X476123Y827845D1*
X475433Y836615D1*
X476123Y845386D1*
X478177Y853940D1*
X481544Y862068D1*
X486140Y869568D1*
X491854Y876258D1*
X498543Y881971D1*
X506044Y886568D1*
X514172Y889935D1*
X522726Y891988D1*
X531496Y892678D1*
X540266Y891988D1*
X548820Y889935D1*
X556948Y886568D1*
X564449Y881971D1*
X571139Y876258D1*
X576852Y869568D1*
X581449Y862068D1*
X584815Y853940D1*
X586869Y845386D1*
X587559Y836615D1*
X586869Y827845D1*
X584815Y819291D1*
X581449Y811163D1*
X576852Y803662D1*
X571139Y796973D1*
X564449Y791260D1*
X556948Y786663D1*
X548820Y783296D1*
X540266Y781243D1*
X531496Y780552D1*
X522726Y781243D1*
X514172Y783296D1*
X506044Y786663D1*
X498543Y791260D1*
X497017Y792463D1*
X497008Y680159D1*
X431519D1*
X431496Y533991D1*
X435219Y505700D1*
X445177Y481659D1*
X461018Y461016D1*
X481662Y445175D1*
X505703Y435218D1*
X533964Y431499D1*
X2280985Y431498D1*
X2309262Y435220D1*
X2333303Y445179D1*
X2353947Y461019D1*
X2369786Y481663D1*
X2379743Y505702D1*
X2383465Y533965D1*
X2383466Y548594D1*
X2374856Y535348D1*
X2369263Y528062D1*
X2363265Y521105D1*
X2356881Y514501D1*
X2350132Y508272D1*
X2343039Y502436D1*
X2335625Y497013D1*
X2327915Y492021D1*
X2319934Y487475D1*
X2311707Y483391D1*
X2303260Y479782D1*
X2294622Y476659D1*
X2285821Y474032D1*
X2276884Y471911D1*
X2267841Y470301D1*
X2258721Y469209D1*
X2249554Y468637D1*
X2240369Y468588D1*
X2231196Y469061D1*
X2222065Y470055D1*
X2213005Y471568D1*
X2204046Y473593D1*
X2195217Y476125D1*
X2186546Y479155D1*
X2178061Y482673D1*
X2169791Y486668D1*
X2161761Y491128D1*
X2153997Y496037D1*
X2146526Y501380D1*
X2139371Y507139D1*
X2132555Y513296D1*
X2126100Y519831D1*
X2120028Y526722D1*
X2114357Y533948D1*
X2109107Y541485D1*
X2104294Y549308D1*
X2099934Y557392D1*
X2096041Y565711D1*
X2092628Y574239D1*
X2089705Y582946D1*
X2087283Y591806D1*
X2085368Y600790D1*
X2083968Y609867D1*
X2083086Y619010D1*
X2082726Y628188D1*
X2082889Y637372D1*
X2083573Y646531D1*
X2084778Y655637D1*
X2086499Y664660D1*
X2088731Y673569D1*
X2091466Y682338D1*
X2094695Y690937D1*
X2098409Y699338D1*
X2102594Y707514D1*
X2107237Y715439D1*
X2112324Y723086D1*
X2117838Y730432D1*
X2123761Y737453D1*
X2130074Y744125D1*
X2136756Y750427D1*
X2143786Y756339D1*
X2151141Y761841D1*
X2158796Y766916D1*
X2166729Y771547D1*
X2174912Y775719D1*
X2183318Y779419D1*
X2191922Y782634D1*
X2200695Y785355D1*
X2209609Y787573D1*
X2218634Y789279D1*
X2229352Y790588D1*
X2228092Y796349D1*
X2227402Y805119D1*
X2228092Y813890D1*
X2230145Y822444D1*
X2233512Y830571D1*
X2238109Y838072D1*
X2243822Y844762D1*
X2250512Y850475D1*
X2258013Y855072D1*
X2266140Y858438D1*
X2274694Y860492D1*
X2283465Y861182D1*
X2292235Y860492D1*
X2300789Y858438D1*
X2308917Y855072D1*
X2316418Y850475D1*
X2323107Y844762D1*
X2328820Y838072D1*
X2333417Y830571D1*
X2336784Y822444D1*
X2338837Y813890D1*
X2339066Y811960D1*
X2383442Y811970D1*
X2383465Y1314004D1*
X2333832Y1314017D1*
X2336784Y1306696D1*
X2338837Y1298142D1*
X2339528Y1289371D1*
X2338837Y1280601D1*
X2336784Y1272047D1*
X2333417Y1263919D1*
X2328820Y1256418D1*
X2323107Y1249729D1*
X2316418Y1244015D1*
X2308917Y1239419D1*
X2300789Y1236052D1*
X2292235Y1233999D1*
X2283465Y1233308D1*
X2274694Y1233999D1*
X2266140Y1236052D1*
X2258013Y1239419D1*
X2250512Y1244015D1*
X2243822Y1249729D1*
X2238109Y1256418D1*
X2233512Y1263919D1*
X2230145Y1272047D1*
X2228092Y1280601D1*
X2227402Y1289371D1*
X2228092Y1298142D1*
X2230145Y1306696D1*
X2233512Y1314823D1*
X2238109Y1322324D1*
X2243822Y1329014D1*
X2250512Y1334727D1*
X2258013Y1339324D1*
X2266140Y1342690D1*
X2274694Y1344744D1*
X2283465Y1345434D1*
X2292235Y1344744D1*
X2300789Y1342690D1*
X2308917Y1339324D1*
X2316418Y1334727D1*
X2317944Y1333524D1*
X2317953Y1355391D1*
X2266772Y1355356D1*
Y1370893D1*
X2260237Y1366264D1*
X2251848Y1361990D1*
X2242894Y1359080D1*
X2233595Y1357608D1*
X2224180D1*
X2214880Y1359080D1*
X2208326Y1361104D1*
X2208178Y957392D1*
X2206995Y949924D1*
X2204659Y942732D1*
X2201226Y935994D1*
X2196781Y929877D1*
X2174725Y907611D1*
X2128934Y862030D1*
X2122817Y857585D1*
X2116079Y854152D1*
X2108887Y851816D1*
X2101419Y850633D1*
X2070079Y850484D1*
X2052101D1*
X2052126Y845513D1*
X1924252D1*
Y857319D1*
X1758351Y857324D1*
X1753988Y854355D1*
X1745599Y850080D1*
X1736645Y847171D1*
X1727345Y845698D1*
X1720817Y845585D1*
X1720827Y827647D1*
X1775552Y772914D1*
X1789618Y779419D1*
X1798222Y782634D1*
X1806994Y785355D1*
X1815908Y787573D1*
X1824933Y789279D1*
X1834041Y790470D1*
X1843201Y791140D1*
X1852385Y791288D1*
X1861563Y790914D1*
X1870704Y790017D1*
X1879779Y788603D1*
X1888760Y786674D1*
X1897616Y784237D1*
X1906319Y781300D1*
X1914841Y777873D1*
X1923154Y773967D1*
X1931231Y769594D1*
X1939047Y764769D1*
X1946575Y759507D1*
X1953792Y753825D1*
X1960673Y747741D1*
X1967198Y741276D1*
X1973344Y734450D1*
X1979092Y727286D1*
X1984423Y719806D1*
X1989319Y712035D1*
X1993766Y703998D1*
X1997748Y695721D1*
X2001253Y687231D1*
X2004269Y678555D1*
X2006787Y669722D1*
X2008798Y660760D1*
X2010296Y651698D1*
X2011276Y642565D1*
X2011772Y629923D1*
X2011510Y620741D1*
X1195654Y1908988D2*
X1194278Y1900299D1*
X1191559Y1891933D1*
X1187565Y1884094D1*
X1182394Y1876977D1*
X1176174Y1870757D1*
X1169057Y1865586D1*
X1161218Y1861592D1*
X1152851Y1858873D1*
X1144162Y1857497D1*
X1135365D1*
X1126676Y1858873D1*
X1118309Y1861592D1*
X1110471Y1865586D1*
X1103354Y1870757D1*
X1097133Y1876977D1*
X1091962Y1884094D1*
X1087968Y1891933D1*
X1085250Y1900299D1*
X1083874Y1908988D1*
Y1917786D1*
X1085250Y1926475D1*
X1087968Y1934842D1*
X1091962Y1942680D1*
X1097133Y1949797D1*
X1103354Y1956018D1*
X1110471Y1961189D1*
X1118309Y1965183D1*
X1126676Y1967901D1*
X1135365Y1969277D1*
X1144162D1*
X1152851Y1967901D1*
X1161218Y1965183D1*
X1169057Y1961189D1*
X1176174Y1956018D1*
X1182394Y1949797D1*
X1187565Y1942680D1*
X1191559Y1934842D1*
X1194278Y1926475D1*
X1195654Y1917786D1*
Y1908988D1*
X1679906D2*
X1678530Y1900299D1*
X1675811Y1891933D1*
X1671817Y1884094D1*
X1666646Y1876977D1*
X1660426Y1870757D1*
X1653309Y1865586D1*
X1645470Y1861592D1*
X1637103Y1858873D1*
X1628414Y1857497D1*
X1619617D1*
X1610928Y1858873D1*
X1602561Y1861592D1*
X1594723Y1865586D1*
X1587606Y1870757D1*
X1581385Y1876977D1*
X1576214Y1884094D1*
X1572220Y1891933D1*
X1569502Y1900299D1*
X1568126Y1908988D1*
Y1917786D1*
X1569502Y1926475D1*
X1572220Y1934842D1*
X1576214Y1942680D1*
X1581385Y1949797D1*
X1587606Y1956018D1*
X1594723Y1961189D1*
X1602561Y1965183D1*
X1610928Y1967901D1*
X1619617Y1969277D1*
X1628414D1*
X1637103Y1967901D1*
X1645470Y1965183D1*
X1653309Y1961189D1*
X1660426Y1956018D1*
X1666646Y1949797D1*
X1671817Y1942680D1*
X1675811Y1934842D1*
X1678530Y1926475D1*
X1679906Y1917786D1*
Y1908988D1*
D17*
X551181Y629923D3*
X944882D3*
X1397638D3*
X1850394D3*
X2244094D3*
D21*
X1031575Y1547984D3*
D22*
X740079Y1839323D3*
X1031417Y1918063D3*
D26*
X2293307Y1643702D3*
Y1525592D3*
Y1466537D3*
D27*
X2318898Y1698820D3*
X2405512D3*
X2318898Y1411419D3*
X2405512D3*
D26*
X521654Y1466537D3*
Y1584647D3*
Y1643702D3*
D27*
X496063Y1411419D3*
X409449D3*
X496063Y1698820D3*
X409449D3*
D28*
X2381890Y1379923D3*
Y746064D3*
D29*
X1988189Y1062993D3*
Y1141734D3*
Y984253D3*
Y905513D3*
Y1220474D3*
D28*
X433071Y746064D3*
Y1379923D3*
D29*
X826772Y1062993D3*
Y984253D3*
Y1141734D3*
Y1220474D3*
Y905513D3*
M02*
