G04 DipTrace 3.3.1.1*
G04 BottomSilk.gbr*
%MOIN*%
G04 #@! TF.FileFunction,Legend,Bot*
G04 #@! TF.Part,Single*
%ADD10C,0.009843*%
%ADD15C,0.003937*%
%ADD26C,0.01181*%
%ADD68C,0.00772*%
%FSLAX26Y26*%
G04*
G70*
G90*
G75*
G01*
G04 BotSilk*
%LPD*%
X1003856Y2012529D2*
D10*
X767637D1*
Y1900295D1*
X1003856Y1979133D2*
Y2012529D1*
Y1441722D2*
Y1475118D1*
Y1856994D2*
Y1620814D1*
X767637Y1778290D2*
Y1441722D1*
X953840D1*
X929053D2*
X1003856D1*
X984171Y2110976D2*
X787322D1*
X984171D2*
Y2012529D1*
X787322Y2110976D2*
Y2012529D1*
X2413390Y1665340D2*
Y1444899D1*
X2377959Y1421274D2*
X2346451D1*
X2413390Y1551198D2*
X2472441D1*
Y1503947D1*
X2413390D1*
Y1551198D1*
X2377959Y1688965D2*
X2346451D1*
X2311020Y1618121D2*
Y1551198D1*
X2389769Y1537376D2*
D15*
Y1580706D1*
X2377959Y1564955D1*
X2389769Y1580706D2*
X2401580Y1564955D1*
D26*
X2277551Y1671254D3*
X401571Y1444899D2*
D10*
Y1665340D1*
X437002Y1688965D2*
X468509D1*
X401571Y1559041D2*
X342520D1*
Y1606292D1*
X401571D1*
Y1559041D1*
X437002Y1421274D2*
X468509D1*
X503940Y1492118D2*
Y1559041D1*
X425191Y1572863D2*
D15*
Y1529533D1*
X437002Y1545284D1*
X425191Y1529533D2*
X413381Y1545284D1*
D26*
X537409Y1438985D3*
X1988198Y1062993D2*
D10*
G02X1988198Y1062993I295271J0D01*
G01*
X236220D2*
G02X236220Y1062993I295271J0D01*
G01*
X1169602Y1746699D2*
D68*
Y1708453D1*
X1171978Y1701268D1*
X1174410Y1698891D1*
X1179163Y1696459D1*
X1183972D1*
X1188725Y1698891D1*
X1191102Y1701268D1*
X1193533Y1708453D1*
Y1713206D1*
X1115861Y1696459D2*
X1135039Y1746699D1*
X1154162Y1696459D1*
X1146977Y1713206D2*
X1123046D1*
X1064551Y1734761D2*
X1066928Y1739514D1*
X1071736Y1744323D1*
X1076490Y1746699D1*
X1086051D1*
X1090860Y1744323D1*
X1095613Y1739514D1*
X1098045Y1734761D1*
X1100421Y1727576D1*
Y1715583D1*
X1098045Y1708453D1*
X1095613Y1703644D1*
X1090860Y1698891D1*
X1086051Y1696459D1*
X1076490D1*
X1071736Y1698891D1*
X1066928Y1703644D1*
X1064551Y1708453D1*
X1049112Y1746699D2*
Y1696459D1*
X1015619Y1746699D2*
X1049112Y1713206D1*
X1037174Y1725200D2*
X1015619Y1696459D1*
X2346731Y1784543D2*
X2351484Y1789352D1*
X2358669Y1791728D1*
X2368231D1*
X2375416Y1789352D1*
X2380225Y1784543D1*
Y1779790D1*
X2377793Y1774982D1*
X2375416Y1772605D1*
X2370663Y1770228D1*
X2356293Y1765420D1*
X2351484Y1763043D1*
X2349108Y1760612D1*
X2346731Y1755858D1*
Y1748673D1*
X2351484Y1743920D1*
X2358669Y1741488D1*
X2368231D1*
X2375416Y1743920D1*
X2380225Y1748673D1*
X2331292Y1791728D2*
X2319299Y1741488D1*
X2307360Y1791728D1*
X2295422Y1741488D1*
X2283429Y1791728D1*
X2267989Y1782111D2*
X2263181Y1784543D1*
X2255996Y1791673D1*
Y1741488D1*
X661221Y1553293D2*
X665975Y1558101D1*
X673160Y1560478D1*
X682721D1*
X689906Y1558101D1*
X694715Y1553293D1*
Y1548539D1*
X692283Y1543731D1*
X689906Y1541354D1*
X685153Y1538978D1*
X670783Y1534169D1*
X665975Y1531793D1*
X663598Y1529361D1*
X661221Y1524608D1*
Y1517423D1*
X665975Y1512670D1*
X673160Y1510238D1*
X682721D1*
X689906Y1512670D1*
X694715Y1517423D1*
X645782Y1560478D2*
X633789Y1510238D1*
X621850Y1560478D1*
X609912Y1510238D1*
X597919Y1560478D1*
X580048Y1548484D2*
Y1550861D1*
X577671Y1555669D1*
X575294Y1558046D1*
X570486Y1560422D1*
X560924D1*
X556171Y1558046D1*
X553795Y1555669D1*
X551363Y1550861D1*
Y1546108D1*
X553795Y1541299D1*
X558548Y1534169D1*
X582479Y1510238D1*
X548986D1*
X2351457Y1456365D2*
X2329902D1*
X2322772Y1458741D1*
X2320341Y1461173D1*
X2317964Y1465927D1*
Y1473112D1*
X2320341Y1477865D1*
X2322772Y1480297D1*
X2329902Y1482673D1*
X2351457D1*
Y1432433D1*
X2288155Y1482673D2*
X2292963Y1480297D1*
X2297716Y1475488D1*
X2300148Y1470735D1*
X2302525Y1463550D1*
Y1451556D1*
X2300148Y1444427D1*
X2297716Y1439618D1*
X2292963Y1434865D1*
X2288155Y1432433D1*
X2278593D1*
X2273840Y1434865D1*
X2269031Y1439618D1*
X2266655Y1444427D1*
X2264278Y1451556D1*
Y1463550D1*
X2266655Y1470735D1*
X2269031Y1475488D1*
X2273840Y1480297D1*
X2278593Y1482673D1*
X2288155D1*
X2232092D2*
Y1432433D1*
X2248839Y1482673D2*
X2215346D1*
X2199906Y1473056D2*
X2195098Y1475488D1*
X2187913Y1482618D1*
Y1432433D1*
X750298Y1387616D2*
X728743D1*
X721613Y1389992D1*
X719181Y1392424D1*
X716804Y1397177D1*
Y1404362D1*
X719181Y1409115D1*
X721613Y1411547D1*
X728743Y1413924D1*
X750298D1*
Y1363684D1*
X686995Y1413924D2*
X691804Y1411547D1*
X696557Y1406739D1*
X698989Y1401986D1*
X701365Y1394801D1*
Y1382807D1*
X698989Y1375677D1*
X696557Y1370869D1*
X691804Y1366116D1*
X686995Y1363684D1*
X677433D1*
X672680Y1366116D1*
X667872Y1370869D1*
X665495Y1375677D1*
X663119Y1382807D1*
Y1394801D1*
X665495Y1401986D1*
X667872Y1406739D1*
X672680Y1411547D1*
X677433Y1413924D1*
X686995D1*
X630933D2*
Y1363684D1*
X647679Y1413924D2*
X614186D1*
X596315Y1401930D2*
Y1404307D1*
X593938Y1409115D1*
X591562Y1411492D1*
X586753Y1413869D1*
X577192D1*
X572438Y1411492D1*
X570062Y1409115D1*
X567630Y1404307D1*
Y1399554D1*
X570062Y1394745D1*
X574815Y1387616D1*
X598747Y1363684D1*
X565253D1*
M02*
