G04 DipTrace 3.3.1.1*
G04 Top.gbr*
%MOIN*%
G04 #@! TF.FileFunction,Copper,L1,Top*
G04 #@! TF.Part,Single*
G04 #@! TA.AperFunction,CopperBalancing*
%ADD14C,0.023622*%
%ADD16R,0.031496X0.031496*%
G04 #@! TA.AperFunction,ComponentPad*
%ADD17C,0.25*%
%ADD19R,0.200787X0.200787*%
%ADD20C,0.629921*%
%ADD24R,0.169291X0.224409*%
%ADD25R,0.059055X0.051181*%
%ADD31R,0.059055X0.055118*%
%ADD32R,0.047244X0.055118*%
G04 #@! TA.AperFunction,ViaPad*
%ADD33C,0.047244*%
%FSLAX26Y26*%
G04*
G70*
G90*
G75*
G01*
G04 Top*
%LPD*%
X1318898Y1618112D2*
D14*
Y1452413D1*
X2072638Y698673D1*
X2175344D1*
X2244094Y629923D1*
X1754479Y905513D2*
X1220472D1*
X944882Y629923D1*
X1472638Y1498673D2*
Y1614371D1*
X1476378Y1618112D1*
X1697638Y1636172D2*
X1984596D1*
X1988189Y1639765D1*
X2222638Y1398673D2*
Y1773673D1*
X2272638Y1823673D1*
Y1889617D1*
Y1948672D2*
X2206004D1*
X2203887Y1950789D1*
X807092Y1921261D2*
X878253Y1992423D1*
X910138D1*
X1066387Y1836173D1*
X2164075D1*
X2203887Y1875986D1*
D33*
X1754479Y905513D3*
X1472638Y1498673D3*
X1697638Y1636172D3*
X2222638Y1398673D3*
X471232Y1985959D2*
D14*
X667961D1*
X2327126D2*
X2343717D1*
X449988Y1962469D2*
X667961D1*
X2327126D2*
X2364996D1*
X439115Y1938978D2*
X667961D1*
X2327126D2*
X2375833D1*
X434988Y1915487D2*
X667961D1*
X2327126D2*
X2379996D1*
X433877Y1891996D2*
X667961D1*
X2327126D2*
X2381108D1*
X433877Y1868505D2*
X667961D1*
X2327126D2*
X2381108D1*
X433877Y1845014D2*
X667961D1*
X951290D2*
X987043D1*
X2327126D2*
X2381108D1*
X433877Y1821524D2*
X667961D1*
X946231D2*
X1010512D1*
X2323143D2*
X2381108D1*
X433877Y1798033D2*
X667961D1*
X946231D2*
X1034554D1*
X2315786D2*
X2381108D1*
X433877Y1774542D2*
X1864806D1*
X2111570D2*
X2172083D1*
X2294005D2*
X2381108D1*
X433877Y1751051D2*
X1864806D1*
X2111570D2*
X2172083D1*
X2273192D2*
X2381108D1*
X433877Y1727560D2*
X1864806D1*
X2111570D2*
X2172083D1*
X2273192D2*
X2381108D1*
X433877Y1704070D2*
X1864806D1*
X2111570D2*
X2172083D1*
X2273192D2*
X2381108D1*
X433877Y1680579D2*
X1256534D1*
X1617480D2*
X1654920D1*
X2111570D2*
X2172083D1*
X2273192D2*
X2381108D1*
X488062Y1657088D2*
X844367D1*
X927140D2*
X1256534D1*
X1617480D2*
X1639024D1*
X2111570D2*
X2172083D1*
X2273192D2*
X2326923D1*
X505609Y1633597D2*
X822622D1*
X948886D2*
X1256534D1*
X1617480D2*
X1635327D1*
X2111570D2*
X2172083D1*
X2273192D2*
X2309340D1*
X509054Y1610106D2*
X814404D1*
X957104D2*
X1256534D1*
X1617480D2*
X1641248D1*
X2111570D2*
X2172083D1*
X2273192D2*
X2305895D1*
X501661Y1586615D2*
X814692D1*
X956816D2*
X1256534D1*
X1617480D2*
X1661450D1*
X1733816D2*
X1864806D1*
X2111570D2*
X2172083D1*
X2273192D2*
X2313287D1*
X473026Y1563125D2*
X823555D1*
X947953D2*
X1256534D1*
X1617480D2*
X1864806D1*
X2111570D2*
X2172083D1*
X2273192D2*
X2341958D1*
X487164Y1539634D2*
X846879D1*
X924629D2*
X1268340D1*
X1369449D2*
X1422104D1*
X1523177D2*
X1864806D1*
X2111570D2*
X2172083D1*
X2273192D2*
X2327783D1*
X505357Y1516143D2*
X1268340D1*
X1369449D2*
X1412881D1*
X1532399D2*
X1864806D1*
X2111570D2*
X2172083D1*
X2273192D2*
X2309627D1*
X509089Y1492652D2*
X1268340D1*
X1369449D2*
X1410584D1*
X1534696D2*
X1864806D1*
X2111570D2*
X2172083D1*
X2273192D2*
X2305858D1*
X502056Y1469161D2*
X1268340D1*
X1372678D2*
X1418049D1*
X1527231D2*
X2172083D1*
X2273192D2*
X2312928D1*
X474785Y1445671D2*
X1268806D1*
X1396147D2*
X1442163D1*
X1503117D2*
X2172083D1*
X2273192D2*
X2340164D1*
X433877Y1422180D2*
X1278997D1*
X1419651D2*
X2165085D1*
X2280189D2*
X2381108D1*
X433877Y1398689D2*
X1302106D1*
X1443119D2*
X2160277D1*
X2284997D2*
X2381108D1*
X433877Y1375198D2*
X515310D1*
X547701D2*
X1325610D1*
X1466623D2*
X2165050D1*
X2280226D2*
X2381108D1*
X433877Y1351707D2*
X482332D1*
X580678D2*
X1349079D1*
X1490127D2*
X2182920D1*
X2262354D2*
X2381108D1*
X433877Y1328217D2*
X473541D1*
X589434D2*
X1372583D1*
X1513596D2*
X2240693D1*
X2326265D2*
X2381108D1*
X433877Y1304726D2*
X475442D1*
X587533D2*
X1396087D1*
X1537100D2*
X2227201D1*
X2339757D2*
X2381108D1*
X433877Y1281235D2*
X489474D1*
X573501D2*
X1419555D1*
X1560604D2*
X2225622D1*
X2341301D2*
X2381108D1*
X433877Y1257744D2*
X1443059D1*
X1584072D2*
X2234808D1*
X2332114D2*
X2381108D1*
X433877Y1234253D2*
X1466563D1*
X1607576D2*
X2270836D1*
X2296087D2*
X2381108D1*
X433877Y1210762D2*
X1490031D1*
X1631045D2*
X2381108D1*
X433877Y1187272D2*
X1513535D1*
X1654549D2*
X2381108D1*
X433877Y1163781D2*
X1537004D1*
X1678052D2*
X2381108D1*
X433877Y1140290D2*
X1560508D1*
X1701521D2*
X2381108D1*
X433877Y1116799D2*
X1584013D1*
X1725025D2*
X2381108D1*
X433877Y1093308D2*
X1607480D1*
X1748529D2*
X2381108D1*
X433877Y1069818D2*
X1630986D1*
X1771997D2*
X2381108D1*
X433877Y1046327D2*
X667961D1*
X946231D2*
X1654490D1*
X1795501D2*
X2381108D1*
X433877Y1022836D2*
X667961D1*
X946231D2*
X1677958D1*
X1818970D2*
X2381108D1*
X433877Y999345D2*
X667961D1*
X946231D2*
X1701462D1*
X1842474D2*
X2381108D1*
X433877Y975854D2*
X667961D1*
X946231D2*
X1724929D1*
X1865978D2*
X2381108D1*
X433877Y952364D2*
X667961D1*
X946231D2*
X1206833D1*
X1889446D2*
X2381108D1*
X433877Y928873D2*
X667961D1*
X946231D2*
X1173318D1*
X1912950D2*
X2381108D1*
X433877Y905382D2*
X667961D1*
X946231D2*
X1149814D1*
X1936455D2*
X2381108D1*
X433877Y881891D2*
X496076D1*
X566934D2*
X667961D1*
X946231D2*
X1126345D1*
X1959923D2*
X2381108D1*
X433877Y858400D2*
X477488D1*
X585522D2*
X667961D1*
X946231D2*
X1102841D1*
X1793995D2*
X1842415D1*
X1983427D2*
X2263659D1*
X2303262D2*
X2381108D1*
X433877Y834909D2*
X473110D1*
X589900D2*
X667961D1*
X946231D2*
X1079373D1*
X1220386D2*
X1865883D1*
X2006932D2*
X2233623D1*
X2333333D2*
X2381108D1*
X433877Y811419D2*
X479067D1*
X583944D2*
X667961D1*
X946231D2*
X1055869D1*
X1196882D2*
X1889387D1*
X2030399D2*
X2225407D1*
X2341551D2*
X2381108D1*
X433877Y787928D2*
X501350D1*
X561660D2*
X667961D1*
X980070D2*
X1032365D1*
X1173413D2*
X1362463D1*
X1432820D2*
X1815214D1*
X1885571D2*
X1912856D1*
X2053904D2*
X2208900D1*
X2339182D2*
X2381108D1*
X433877Y764437D2*
X853374D1*
X1149909D2*
X1306126D1*
X1489159D2*
X1758877D1*
X2077371D2*
X2152562D1*
X2335594D2*
X2381108D1*
X433877Y740946D2*
X825385D1*
X1126406D2*
X1278172D1*
X1517112D2*
X1730923D1*
X2363584D2*
X2381108D1*
X433877Y717455D2*
X806941D1*
X1102937D2*
X1259692D1*
X1535592D2*
X1712442D1*
X433877Y693965D2*
X794381D1*
X1095365D2*
X1247131D1*
X1548115D2*
X1699919D1*
X433877Y670474D2*
X786307D1*
X1103440D2*
X1239058D1*
X1556190D2*
X1691845D1*
X2008941D2*
X2030340D1*
X433877Y646983D2*
X782037D1*
X1107710D2*
X1234787D1*
X1560461D2*
X1687575D1*
X2013247D2*
X2081260D1*
X433877Y623492D2*
X781283D1*
X1108499D2*
X1234034D1*
X1561249D2*
X1686785D1*
X2014000D2*
X2080470D1*
X433877Y600001D2*
X783938D1*
X1105807D2*
X1236689D1*
X1558594D2*
X1689441D1*
X2011345D2*
X2083161D1*
X433877Y576510D2*
X790255D1*
X1099528D2*
X1243005D1*
X1552278D2*
X1695756D1*
X2005029D2*
X2089441D1*
X433877Y553020D2*
X800661D1*
X1089122D2*
X1253412D1*
X1541873D2*
X1706163D1*
X1994623D2*
X2099848D1*
X434450Y529529D2*
X816163D1*
X1073584D2*
X1268913D1*
X1526335D2*
X1721701D1*
X1979121D2*
X2115386D1*
X437537Y506038D2*
X839093D1*
X1050654D2*
X1291844D1*
X1503404D2*
X1744630D1*
X1956192D2*
X2138315D1*
X2349877D2*
X2377412D1*
X447189Y482547D2*
X876772D1*
X1013010D2*
X1329522D1*
X1465762D2*
X1782273D1*
X1918513D2*
X2175993D1*
X2312198D2*
X2367795D1*
X465921Y459056D2*
X2349028D1*
X507223Y435566D2*
X2307724D1*
X2269781Y2000798D2*
X2321167D1*
X2309260Y2005727D1*
X2280997Y2009448D1*
X2269814Y2009449D1*
X2269793Y2000807D1*
X2324764Y1999327D2*
Y1837491D1*
X2320853D1*
X2320678Y1819892D1*
X2319495Y1812424D1*
X2317159Y1805232D1*
X2313726Y1798495D1*
X2309281Y1792377D1*
X2287226Y1770112D1*
X2270808Y1753694D1*
X2270827Y1434388D1*
X2273797Y1430024D1*
X2278071Y1421634D1*
X2280980Y1412680D1*
X2282453Y1403381D1*
Y1393966D1*
X2280980Y1384667D1*
X2278071Y1375713D1*
X2273797Y1367323D1*
X2268262Y1359706D1*
X2261605Y1353049D1*
X2253988Y1347514D1*
X2245598Y1343240D1*
X2236644Y1340331D1*
X2227345Y1338858D1*
X2217930D1*
X2208631Y1340331D1*
X2199677Y1343240D1*
X2191287Y1347514D1*
X2183671Y1353049D1*
X2177013Y1359706D1*
X2171479Y1367323D1*
X2167205Y1375713D1*
X2164295Y1384667D1*
X2162823Y1393966D1*
Y1403381D1*
X2164295Y1412680D1*
X2167205Y1421634D1*
X2171479Y1430024D1*
X2174450Y1434388D1*
X2174597Y1777454D1*
X2175780Y1784923D1*
X2176812Y1788579D1*
X2175324Y1789315D1*
X2167856Y1788133D1*
X2136514Y1787983D1*
X2109207D1*
X2109213Y1491182D1*
X1867165D1*
Y1587962D1*
X1733370Y1587983D1*
X1728988Y1585013D1*
X1720598Y1580739D1*
X1711644Y1577829D1*
X1702345Y1576357D1*
X1692930D1*
X1683631Y1577829D1*
X1674677Y1580739D1*
X1666287Y1585013D1*
X1658671Y1590547D1*
X1652013Y1597205D1*
X1646479Y1604822D1*
X1642205Y1613211D1*
X1639295Y1622165D1*
X1637823Y1631465D1*
Y1640879D1*
X1639295Y1650178D1*
X1642205Y1659133D1*
X1646479Y1667522D1*
X1652013Y1675139D1*
X1658671Y1681797D1*
X1666287Y1687331D1*
X1674677Y1691605D1*
X1683631Y1694514D1*
X1692930Y1695987D1*
X1702345D1*
X1711644Y1694514D1*
X1720598Y1691605D1*
X1728988Y1687331D1*
X1733353Y1684360D1*
X1867190Y1684361D1*
X1867165Y1787986D1*
X1062606Y1788133D1*
X1055138Y1789315D1*
X1047946Y1791652D1*
X1041209Y1795084D1*
X1035092Y1799529D1*
X1012825Y1821585D1*
X955455Y1878955D1*
X955375Y1869276D1*
X953661Y1858451D1*
X950274Y1848029D1*
X945299Y1838264D1*
X943858Y1836108D1*
X943869Y1784490D1*
X670325D1*
Y2009448D1*
X533976Y2009450D1*
X505698Y2005727D1*
X481657Y1995769D1*
X461014Y1979928D1*
X445176Y1959285D1*
X435218Y1935244D1*
X431499Y1906982D1*
X431497Y1663913D1*
X440127Y1666774D1*
X448512Y1668102D1*
X457000D1*
X465385Y1666774D1*
X473457Y1664151D1*
X481020Y1660298D1*
X487887Y1655308D1*
X493890Y1649306D1*
X498879Y1642438D1*
X502732Y1634875D1*
X505356Y1626803D1*
X506684Y1618419D1*
Y1609930D1*
X505356Y1601546D1*
X502732Y1593474D1*
X498879Y1585911D1*
X493890Y1579043D1*
X487887Y1573041D1*
X481020Y1568051D1*
X473457Y1564198D1*
X465385Y1561575D1*
X457000Y1560247D1*
X448512D1*
X440127Y1561575D1*
X432055Y1564198D1*
X431497Y1564455D1*
Y1545782D1*
X436039Y1547512D1*
X444294Y1549493D1*
X452756Y1550159D1*
X461218Y1549493D1*
X469472Y1547512D1*
X477314Y1544262D1*
X484552Y1539828D1*
X491007Y1534315D1*
X496520Y1527861D1*
X500954Y1520622D1*
X504203Y1512781D1*
X506185Y1504526D1*
X506850Y1496064D1*
X506185Y1487602D1*
X504203Y1479348D1*
X500954Y1471507D1*
X496520Y1464268D1*
X491007Y1457814D1*
X484552Y1452301D1*
X477314Y1447866D1*
X469472Y1444617D1*
X461218Y1442635D1*
X452756Y1441970D1*
X444294Y1442635D1*
X436039Y1444617D1*
X431497Y1446345D1*
X431496Y533991D1*
X435219Y505699D1*
X445177Y481659D1*
X461018Y461016D1*
X481663Y445176D1*
X505702Y435218D1*
X533963Y431499D1*
X2280984Y431497D1*
X2309262Y435220D1*
X2333303Y445178D1*
X2353946Y461020D1*
X2369786Y481663D1*
X2379743Y505702D1*
X2383465Y533965D1*
X2383466Y548594D1*
X2374856Y535348D1*
X2369262Y528062D1*
X2363265Y521105D1*
X2356881Y514501D1*
X2350131Y508272D1*
X2343038Y502436D1*
X2335625Y497013D1*
X2327915Y492021D1*
X2319933Y487475D1*
X2311706Y483391D1*
X2303260Y479782D1*
X2294622Y476659D1*
X2285820Y474033D1*
X2276885Y471911D1*
X2267841Y470302D1*
X2258722Y469209D1*
X2249554Y468636D1*
X2240369Y468588D1*
X2231196Y469060D1*
X2222064Y470055D1*
X2213005Y471568D1*
X2204046Y473593D1*
X2195217Y476125D1*
X2186546Y479155D1*
X2178062Y482673D1*
X2169790Y486668D1*
X2161761Y491127D1*
X2153997Y496037D1*
X2146526Y501379D1*
X2139371Y507139D1*
X2132555Y513295D1*
X2126100Y519831D1*
X2120028Y526722D1*
X2114357Y533948D1*
X2109108Y541484D1*
X2104294Y549308D1*
X2099934Y557392D1*
X2096041Y565711D1*
X2092627Y574239D1*
X2089705Y582946D1*
X2087282Y591806D1*
X2085367Y600790D1*
X2083967Y609867D1*
X2083085Y619010D1*
X2082726Y628188D1*
X2082888Y637371D1*
X2084096Y650479D1*
X2068857Y650633D1*
X2061388Y651815D1*
X2054197Y654152D1*
X2047459Y657585D1*
X2041341Y662030D1*
X2019076Y684085D1*
X1986420Y716741D1*
X1993766Y703999D1*
X1997748Y695722D1*
X2001253Y687231D1*
X2004269Y678555D1*
X2006787Y669722D1*
X2008798Y660760D1*
X2010295Y651698D1*
X2011276Y642564D1*
X2011772Y629923D1*
X2011510Y620741D1*
X2010727Y611589D1*
X2009424Y602497D1*
X2007606Y593493D1*
X2005280Y584609D1*
X2002450Y575870D1*
X1999129Y567306D1*
X1995325Y558946D1*
X1991052Y550815D1*
X1986324Y542941D1*
X1981155Y535348D1*
X1975562Y528062D1*
X1969564Y521105D1*
X1963180Y514501D1*
X1956430Y508272D1*
X1949337Y502436D1*
X1941924Y497013D1*
X1934214Y492021D1*
X1926232Y487475D1*
X1918005Y483391D1*
X1909559Y479782D1*
X1900921Y476659D1*
X1892119Y474033D1*
X1883184Y471911D1*
X1874140Y470302D1*
X1865021Y469209D1*
X1855853Y468636D1*
X1846668Y468588D1*
X1837495Y469060D1*
X1828364Y470055D1*
X1819304Y471568D1*
X1810345Y473593D1*
X1801516Y476125D1*
X1792845Y479155D1*
X1784361Y482673D1*
X1776089Y486668D1*
X1768060Y491127D1*
X1760297Y496037D1*
X1752825Y501379D1*
X1745671Y507139D1*
X1738854Y513295D1*
X1732399Y519831D1*
X1726327Y526722D1*
X1720656Y533948D1*
X1715407Y541484D1*
X1710593Y549308D1*
X1706234Y557392D1*
X1702340Y565711D1*
X1698927Y574239D1*
X1696004Y582946D1*
X1693581Y591806D1*
X1691667Y600790D1*
X1690266Y609867D1*
X1689385Y619010D1*
X1689025Y628188D1*
X1689188Y637371D1*
X1689873Y646531D1*
X1691077Y655636D1*
X1692799Y664660D1*
X1695030Y673570D1*
X1697765Y682339D1*
X1700995Y690937D1*
X1704707Y699337D1*
X1708894Y707514D1*
X1713537Y715438D1*
X1718623Y723087D1*
X1724138Y730433D1*
X1730060Y737453D1*
X1736373Y744125D1*
X1743055Y750427D1*
X1750085Y756339D1*
X1757440Y761841D1*
X1765096Y766916D1*
X1773028Y771547D1*
X1781211Y775719D1*
X1789618Y779419D1*
X1798222Y782634D1*
X1806995Y785356D1*
X1815908Y787572D1*
X1824933Y789280D1*
X1834041Y790470D1*
X1843201Y791140D1*
X1852385Y791289D1*
X1861563Y790913D1*
X1870703Y790017D1*
X1879780Y788602D1*
X1888760Y786673D1*
X1897615Y784238D1*
X1906319Y781301D1*
X1914841Y777874D1*
X1923154Y773967D1*
X1931231Y769594D1*
X1937367Y765806D1*
X1812608Y890554D1*
X1809912Y882552D1*
X1805638Y874163D1*
X1800104Y866546D1*
X1793446Y859888D1*
X1785829Y854354D1*
X1777440Y850080D1*
X1768486Y847171D1*
X1759186Y845698D1*
X1749772D1*
X1740472Y847171D1*
X1731518Y850080D1*
X1723129Y854354D1*
X1718764Y857325D1*
X1240438Y857324D1*
X1087866Y704757D1*
X1092236Y695722D1*
X1095741Y687231D1*
X1098757Y678555D1*
X1101276Y669722D1*
X1103286Y660760D1*
X1104783Y651698D1*
X1105764Y642564D1*
X1106260Y629923D1*
X1105999Y620741D1*
X1105215Y611589D1*
X1103912Y602497D1*
X1102094Y593493D1*
X1099768Y584609D1*
X1096938Y575870D1*
X1093617Y567306D1*
X1089814Y558946D1*
X1085541Y550815D1*
X1080812Y542941D1*
X1075643Y535348D1*
X1070050Y528062D1*
X1064052Y521105D1*
X1057668Y514501D1*
X1050919Y508272D1*
X1043825Y502436D1*
X1036412Y497013D1*
X1028702Y492021D1*
X1020720Y487475D1*
X1012493Y483391D1*
X1004047Y479782D1*
X995409Y476659D1*
X986608Y474033D1*
X977672Y471911D1*
X968629Y470302D1*
X959509Y469209D1*
X950341Y468636D1*
X941156Y468588D1*
X931983Y469060D1*
X922852Y470055D1*
X913793Y471568D1*
X904833Y473593D1*
X896004Y476125D1*
X887333Y479155D1*
X878849Y482673D1*
X870577Y486668D1*
X862549Y491127D1*
X854785Y496037D1*
X847314Y501379D1*
X840159Y507139D1*
X833343Y513295D1*
X826887Y519831D1*
X820815Y526722D1*
X815144Y533948D1*
X809895Y541484D1*
X805081Y549308D1*
X800722Y557392D1*
X796828Y565711D1*
X793415Y574239D1*
X790492Y582946D1*
X788070Y591806D1*
X786155Y600790D1*
X784755Y609867D1*
X783873Y619010D1*
X783513Y628188D1*
X783676Y637371D1*
X784361Y646531D1*
X785566Y655636D1*
X787287Y664660D1*
X789518Y673570D1*
X792253Y682339D1*
X795483Y690937D1*
X799196Y699337D1*
X803382Y707514D1*
X808025Y715438D1*
X813112Y723087D1*
X818626Y730433D1*
X824549Y737453D1*
X830861Y744125D1*
X837543Y750427D1*
X844573Y756339D1*
X851928Y761841D1*
X859584Y766916D1*
X867516Y771547D1*
X877768Y776630D1*
X670325Y776615D1*
Y1050159D1*
X943869D1*
Y791325D1*
X956051Y790913D1*
X965192Y790017D1*
X974268Y788602D1*
X983248Y786673D1*
X992104Y784238D1*
X1000807Y781301D1*
X1009329Y777874D1*
X1019693Y772857D1*
X1189176Y942156D1*
X1195294Y946601D1*
X1202031Y950034D1*
X1209223Y952371D1*
X1216692Y953554D1*
X1248031Y953702D1*
X1718724D1*
X1727240Y958974D1*
X1735938Y962576D1*
X1739570Y963601D1*
X1282255Y1421117D1*
X1277810Y1427235D1*
X1274377Y1433972D1*
X1272039Y1441164D1*
X1270857Y1448633D1*
X1270709Y1479972D1*
Y1554146D1*
X1258898Y1554175D1*
Y1682049D1*
X1615118D1*
Y1554175D1*
X1520850D1*
X1520827Y1534386D1*
X1523797Y1530024D1*
X1528071Y1521634D1*
X1530980Y1512680D1*
X1532453Y1503381D1*
Y1493966D1*
X1530980Y1484667D1*
X1528071Y1475713D1*
X1523797Y1467323D1*
X1518262Y1459706D1*
X1511605Y1453049D1*
X1503988Y1447514D1*
X1495598Y1443240D1*
X1486644Y1440331D1*
X1477345Y1438858D1*
X1467930D1*
X1458631Y1440331D1*
X1449677Y1443240D1*
X1441287Y1447514D1*
X1433671Y1453049D1*
X1427013Y1459706D1*
X1421479Y1467323D1*
X1417205Y1475713D1*
X1414295Y1484667D1*
X1412823Y1493966D1*
Y1503381D1*
X1414295Y1512680D1*
X1417205Y1521634D1*
X1421479Y1530024D1*
X1424450Y1534388D1*
X1424449Y1554186D1*
X1367092Y1554175D1*
X1367087Y1472386D1*
X2092598Y746864D1*
X2132887Y746862D1*
X2143786Y756339D1*
X2151140Y761841D1*
X2158797Y766916D1*
X2166728Y771547D1*
X2174912Y775719D1*
X2183319Y779419D1*
X2191923Y782634D1*
X2200696Y785356D1*
X2209609Y787572D1*
X2218634Y789280D1*
X2229352Y790588D1*
X2228092Y796349D1*
X2227402Y805119D1*
X2228092Y813890D1*
X2230146Y822444D1*
X2233512Y830571D1*
X2238109Y838072D1*
X2243822Y844762D1*
X2250512Y850475D1*
X2258013Y855072D1*
X2266140Y858438D1*
X2274694Y860492D1*
X2283465Y861182D1*
X2292235Y860492D1*
X2300789Y858438D1*
X2308916Y855072D1*
X2316417Y850475D1*
X2323108Y844762D1*
X2328820Y838072D1*
X2333417Y830571D1*
X2336783Y822444D1*
X2338837Y813890D1*
X2339528Y805119D1*
X2338837Y796349D1*
X2336783Y787795D1*
X2333417Y779668D1*
X2328820Y772167D1*
X2326213Y768858D1*
X2340276Y759507D1*
X2347492Y753824D1*
X2354374Y747741D1*
X2360899Y741276D1*
X2367045Y734450D1*
X2372793Y727286D1*
X2378123Y719806D1*
X2383454Y711251D1*
X2383465Y1446345D1*
X2378921Y1444617D1*
X2370667Y1442635D1*
X2362205Y1441970D1*
X2353743Y1442635D1*
X2345488Y1444617D1*
X2337647Y1447866D1*
X2330408Y1452301D1*
X2323954Y1457814D1*
X2318441Y1464268D1*
X2314007Y1471507D1*
X2310757Y1479348D1*
X2308776Y1487602D1*
X2308110Y1496064D1*
X2308776Y1504526D1*
X2310757Y1512781D1*
X2314007Y1520622D1*
X2318441Y1527861D1*
X2323954Y1534315D1*
X2330408Y1539828D1*
X2337647Y1544262D1*
X2345488Y1547512D1*
X2353743Y1549493D1*
X2362205Y1550159D1*
X2370667Y1549493D1*
X2378921Y1547512D1*
X2383463Y1545783D1*
X2383465Y1564404D1*
X2374833Y1561575D1*
X2366449Y1560247D1*
X2357961D1*
X2349576Y1561575D1*
X2341504Y1564198D1*
X2333941Y1568051D1*
X2327073Y1573041D1*
X2321071Y1579043D1*
X2316081Y1585911D1*
X2312228Y1593474D1*
X2309605Y1601546D1*
X2308277Y1609930D1*
Y1618419D1*
X2309605Y1626803D1*
X2312228Y1634875D1*
X2316081Y1642438D1*
X2321071Y1649306D1*
X2327073Y1655308D1*
X2333941Y1660298D1*
X2341504Y1664151D1*
X2349576Y1666774D1*
X2357961Y1668102D1*
X2366449D1*
X2374833Y1666774D1*
X2382906Y1664151D1*
X2383463Y1663894D1*
X2383465Y1906957D1*
X2379741Y1935248D1*
X2369783Y1959289D1*
X2353944Y1979930D1*
X2333299Y1995772D1*
X1558755Y620741D2*
X1557971Y611589D1*
X1556668Y602497D1*
X1554850Y593493D1*
X1552524Y584609D1*
X1549694Y575870D1*
X1546373Y567306D1*
X1542570Y558946D1*
X1538297Y550815D1*
X1533568Y542941D1*
X1528399Y535348D1*
X1522806Y528062D1*
X1516808Y521105D1*
X1510424Y514501D1*
X1503675Y508272D1*
X1496581Y502436D1*
X1489168Y497013D1*
X1481458Y492021D1*
X1473476Y487475D1*
X1465249Y483391D1*
X1456803Y479782D1*
X1448165Y476659D1*
X1439364Y474033D1*
X1430428Y471911D1*
X1421385Y470302D1*
X1412265Y469209D1*
X1403097Y468636D1*
X1393912Y468588D1*
X1384739Y469060D1*
X1375608Y470055D1*
X1366549Y471568D1*
X1357589Y473593D1*
X1348760Y476125D1*
X1340089Y479155D1*
X1331605Y482673D1*
X1323333Y486668D1*
X1315304Y491127D1*
X1307541Y496037D1*
X1300070Y501379D1*
X1292915Y507139D1*
X1286098Y513295D1*
X1279643Y519831D1*
X1273571Y526722D1*
X1267900Y533948D1*
X1262651Y541484D1*
X1257837Y549308D1*
X1253478Y557392D1*
X1249584Y565711D1*
X1246171Y574239D1*
X1243248Y582946D1*
X1240825Y591806D1*
X1238911Y600790D1*
X1237510Y609867D1*
X1236629Y619010D1*
X1236269Y628188D1*
X1236432Y637371D1*
X1237117Y646531D1*
X1238322Y655636D1*
X1240043Y664660D1*
X1242274Y673570D1*
X1245009Y682339D1*
X1248239Y690937D1*
X1251951Y699337D1*
X1256138Y707514D1*
X1260781Y715438D1*
X1265867Y723087D1*
X1271382Y730433D1*
X1277304Y737453D1*
X1283617Y744125D1*
X1290299Y750427D1*
X1297329Y756339D1*
X1304684Y761841D1*
X1312340Y766916D1*
X1320272Y771547D1*
X1328455Y775719D1*
X1336862Y779419D1*
X1345466Y782634D1*
X1354239Y785356D1*
X1363152Y787572D1*
X1372177Y789280D1*
X1381285Y790470D1*
X1390445Y791140D1*
X1399629Y791289D1*
X1408807Y790913D1*
X1417948Y790017D1*
X1427024Y788602D1*
X1436004Y786673D1*
X1444860Y784238D1*
X1453563Y781301D1*
X1462085Y777874D1*
X1470398Y773967D1*
X1478475Y769594D1*
X1486290Y764769D1*
X1493819Y759507D1*
X1501035Y753824D1*
X1507917Y747741D1*
X1514442Y741276D1*
X1520588Y734450D1*
X1526336Y727286D1*
X1531667Y719806D1*
X1536563Y712035D1*
X1541010Y703999D1*
X1544992Y695722D1*
X1548497Y687231D1*
X1551513Y678555D1*
X1554031Y669722D1*
X1556042Y660760D1*
X1557539Y651698D1*
X1558520Y642564D1*
X1559016Y629923D1*
X1558755Y620741D1*
X955375Y1593685D2*
X953661Y1582861D1*
X950274Y1572438D1*
X945299Y1562673D1*
X938857Y1553806D1*
X931108Y1546056D1*
X922240Y1539614D1*
X912475Y1534639D1*
X902052Y1531252D1*
X891228Y1529538D1*
X880268D1*
X869444Y1531252D1*
X859021Y1534639D1*
X849256Y1539614D1*
X840388Y1546056D1*
X832639Y1553806D1*
X826197Y1562673D1*
X821222Y1572438D1*
X817835Y1582861D1*
X816121Y1593685D1*
Y1604646D1*
X817835Y1615470D1*
X821222Y1625892D1*
X826197Y1635657D1*
X832639Y1644525D1*
X840388Y1652274D1*
X849256Y1658717D1*
X859021Y1663692D1*
X869444Y1667079D1*
X880268Y1668793D1*
X891228D1*
X902052Y1667079D1*
X912475Y1663692D1*
X922240Y1658717D1*
X931108Y1652274D1*
X938857Y1644525D1*
X945299Y1635657D1*
X950274Y1625892D1*
X953661Y1615470D1*
X955375Y1604646D1*
Y1593685D1*
X2339354Y1284972D2*
X2337979Y1276283D1*
X2335260Y1267917D1*
X2331266Y1260079D1*
X2326096Y1252962D1*
X2319874Y1246740D1*
X2312757Y1241570D1*
X2304919Y1237576D1*
X2296552Y1234857D1*
X2287864Y1233482D1*
X2279066D1*
X2270377Y1234857D1*
X2262010Y1237576D1*
X2254172Y1241570D1*
X2247055Y1246740D1*
X2240833Y1252962D1*
X2235663Y1260079D1*
X2231669Y1267917D1*
X2228950Y1276283D1*
X2227575Y1284972D1*
Y1293770D1*
X2228950Y1302459D1*
X2231669Y1310825D1*
X2235663Y1318664D1*
X2240833Y1325781D1*
X2247055Y1332003D1*
X2254172Y1337173D1*
X2262010Y1341167D1*
X2270377Y1343886D1*
X2279066Y1345261D1*
X2287864D1*
X2296552Y1343886D1*
X2304919Y1341167D1*
X2312757Y1337173D1*
X2319874Y1332003D1*
X2326096Y1325781D1*
X2331266Y1318664D1*
X2335260Y1310825D1*
X2337979Y1302459D1*
X2339354Y1293770D1*
Y1284972D1*
X587386Y1316469D2*
X586010Y1307780D1*
X583291Y1299413D1*
X579298Y1291575D1*
X574127Y1284458D1*
X567906Y1278236D1*
X560789Y1273066D1*
X552950Y1269072D1*
X544584Y1266353D1*
X535895Y1264978D1*
X527097D1*
X518408Y1266353D1*
X510042Y1269072D1*
X502203Y1273066D1*
X495087Y1278236D1*
X488865Y1284458D1*
X483694Y1291575D1*
X479701Y1299413D1*
X476982Y1307780D1*
X475606Y1316469D1*
Y1325266D1*
X476982Y1333955D1*
X479701Y1342322D1*
X483694Y1350160D1*
X488865Y1357277D1*
X495087Y1363499D1*
X502203Y1368669D1*
X510042Y1372663D1*
X518408Y1375382D1*
X527097Y1376757D1*
X535895D1*
X544584Y1375382D1*
X552950Y1372663D1*
X560789Y1368669D1*
X567906Y1363499D1*
X574127Y1357277D1*
X579298Y1350160D1*
X583291Y1342322D1*
X586010Y1333955D1*
X587386Y1325266D1*
Y1316469D1*
Y832217D2*
X586010Y823528D1*
X583291Y815161D1*
X579298Y807323D1*
X574127Y800206D1*
X567906Y793984D1*
X560789Y788814D1*
X552950Y784820D1*
X544584Y782101D1*
X535895Y780726D1*
X527097D1*
X518408Y782101D1*
X510042Y784820D1*
X502203Y788814D1*
X495087Y793984D1*
X488865Y800206D1*
X483694Y807323D1*
X479701Y815161D1*
X476982Y823528D1*
X475606Y832217D1*
Y841014D1*
X476982Y849703D1*
X479701Y858070D1*
X483694Y865908D1*
X488865Y873025D1*
X495087Y879247D1*
X502203Y884417D1*
X510042Y888411D1*
X518408Y891130D1*
X527097Y892505D1*
X535895D1*
X544584Y891130D1*
X552950Y888411D1*
X560789Y884417D1*
X567906Y879247D1*
X574127Y873025D1*
X579298Y865908D1*
X583291Y858070D1*
X586010Y849703D1*
X587386Y841014D1*
Y832217D1*
D16*
X2272638Y1948672D3*
Y1889617D3*
D17*
X551181Y629923D3*
X944882D3*
X1397638D3*
X1850394D3*
X2244094D3*
D19*
X807086Y913387D3*
D20*
Y1417324D3*
D19*
Y1921261D3*
D24*
X1988189Y1037403D3*
Y1639765D3*
D25*
X2203887Y1875986D3*
Y1950789D3*
D31*
X1714567Y2011812D3*
X1080709D3*
D32*
X1397638Y1618112D3*
X1476378D3*
X1318898D3*
X1240157D3*
X1555118D3*
M02*
