G04 DipTrace 3.3.1.1*
G04 TopSilk.gbr*
%MOIN*%
G04 #@! TF.FileFunction,Legend,Top*
G04 #@! TF.Part,Single*
%ADD10C,0.009843*%
%ADD15C,0.003937*%
%ADD18C,0.047295*%
%ADD23C,0.03937*%
%ADD68C,0.00772*%
%ADD69C,0.012351*%
%FSLAX26Y26*%
G04*
G70*
G90*
G75*
G01*
G04 TopSilk*
%LPD*%
X2260827Y1856152D2*
D10*
X2284449D1*
X684387Y1001993D2*
X619219D1*
Y1011800D2*
X570051D1*
X619219Y1001993D2*
Y1011800D1*
X684387Y1832649D2*
X619219D1*
D18*
X806605Y771658D3*
X460710Y1216598D2*
D10*
G03X460710Y1618171I-302808J200787D01*
G01*
X619219Y1822842D2*
X570051D1*
X619219D2*
Y1832649D1*
X1007493Y1001993D2*
X1224458Y1259902D1*
Y1574741D1*
X924921Y1001993D2*
X1007493D1*
X1224458Y1574741D2*
X1005464Y1832649D1*
X926873D2*
X1005464D1*
X570987Y1011800D2*
G02X460710Y1216598I12271J138698D01*
G01*
X570987Y1822842D2*
G03X460710Y1618171I12188J-138612D01*
G01*
D23*
X1988220Y895651D3*
X1673228Y1653509D2*
D10*
X1877953D1*
X1673228Y1023589D2*
X1877953D1*
X2098425D2*
X2303150D1*
X2098425Y1653509D2*
X2303150D1*
X1673228Y1023589D2*
Y1653509D1*
X2303150Y1023589D2*
Y1653509D1*
X1102387Y1913391D2*
G02X1102387Y1913391I295250J0D01*
G01*
X1288189Y629923D2*
D15*
G02X1288189Y629923I109449J0D01*
G01*
X2114916Y1866976D2*
D68*
X2165156D1*
Y1895661D1*
X2114916Y1942162D2*
Y1911101D1*
X2165156Y1911100D1*
Y1942162D1*
X2138848Y1911101D2*
Y1930224D1*
X2114916Y1957601D2*
X2165156D1*
Y1974348D1*
X2162724Y1981533D1*
X2157971Y1986341D1*
X2153163Y1988718D1*
X2146033Y1991095D1*
X2134039D1*
X2126854Y1988718D1*
X2122101Y1986341D1*
X2117293Y1981533D1*
X2114916Y1974348D1*
Y1957601D1*
X520183Y816207D2*
X517807Y820961D1*
X512998Y825769D1*
X508245Y828146D1*
X498684D1*
X493875Y825769D1*
X489122Y820961D1*
X486690Y816207D1*
X484314Y809022D1*
Y797029D1*
X486690Y789899D1*
X489122Y785091D1*
X493875Y780338D1*
X498684Y777906D1*
X508245D1*
X512998Y780338D1*
X517807Y785091D1*
X520183Y789899D1*
Y797029D1*
X508245D1*
X569116Y828146D2*
Y777906D1*
X535623Y828146D1*
Y777906D1*
X584555Y828146D2*
Y777906D1*
X601302D1*
X608487Y780338D1*
X613295Y785091D1*
X615672Y789899D1*
X618049Y797029D1*
Y809022D1*
X615672Y816207D1*
X613295Y820961D1*
X608487Y825769D1*
X601302Y828146D1*
X584555D1*
X906101Y828090D2*
X932354D1*
X918039Y808967D1*
X925224D1*
X929977Y806591D1*
X932354Y804214D1*
X934786Y797029D1*
Y792276D1*
X932354Y785091D1*
X927601Y780282D1*
X920416Y777906D1*
X913231D1*
X906101Y780282D1*
X903724Y782714D1*
X901292Y787467D1*
X950225Y828146D2*
X969348Y777906D1*
X988471Y828146D1*
X1383323Y816152D2*
Y818529D1*
X1385700Y823337D1*
X1388076Y825714D1*
X1392885Y828090D1*
X1402446D1*
X1407199Y825714D1*
X1409576Y823337D1*
X1412008Y818529D1*
Y813776D1*
X1409576Y808967D1*
X1404823Y801837D1*
X1380891Y777906D1*
X1414384D1*
X1844397Y818529D2*
X1849205Y820961D1*
X1856390Y828090D1*
Y777906D1*
X2241718Y828090D2*
X2234533Y825714D1*
X2229724Y818529D1*
X2227348Y806591D1*
Y799405D1*
X2229724Y787467D1*
X2234533Y780282D1*
X2241718Y777906D1*
X2246471D1*
X2253656Y780282D1*
X2258409Y787467D1*
X2260841Y799405D1*
Y806591D1*
X2258409Y818529D1*
X2253656Y825714D1*
X2246471Y828090D1*
X2241718D1*
X2258409Y818529D2*
X2229724Y787467D1*
X953655Y957378D2*
Y907138D1*
X975210D1*
X982396Y909570D1*
X984772Y911946D1*
X987149Y916700D1*
Y923885D1*
X984772Y928693D1*
X982396Y931070D1*
X975210Y933446D1*
X982396Y935878D1*
X984772Y938255D1*
X987149Y943008D1*
Y947816D1*
X984772Y952569D1*
X982396Y955001D1*
X975210Y957378D1*
X953655D1*
Y933446D2*
X975210D1*
X1040890Y907138D2*
X1021711Y957378D1*
X1002588Y907138D1*
X1009773Y923885D2*
X1033705D1*
X1073076Y957378D2*
Y907138D1*
X1056329Y957378D2*
X1089822D1*
X1844077Y1837693D2*
Y1787453D1*
X1865633D1*
X1872818Y1789885D1*
X1875194Y1792261D1*
X1877571Y1797015D1*
Y1804200D1*
X1875194Y1809008D1*
X1872818Y1811385D1*
X1865633Y1813761D1*
X1872818Y1816193D1*
X1875194Y1818570D1*
X1877571Y1823323D1*
Y1828131D1*
X1875194Y1832884D1*
X1872818Y1835316D1*
X1865633Y1837693D1*
X1844077D1*
Y1813761D2*
X1865633D1*
X1893010Y1837693D2*
Y1801823D1*
X1895387Y1794638D1*
X1900195Y1789885D1*
X1907380Y1787453D1*
X1912133D1*
X1919318Y1789885D1*
X1924127Y1794638D1*
X1926503Y1801823D1*
Y1837693D1*
X1941943D2*
X1975436D1*
X1941943Y1787453D1*
X1975436D1*
X1990875Y1837693D2*
X2024369D1*
X1990875Y1787453D1*
X2024369D1*
X2070869Y1837693D2*
X2039808D1*
Y1787453D1*
X2070869D1*
X2039808Y1813761D2*
X2058931D1*
X2086308D2*
X2107808D1*
X2114993Y1816193D1*
X2117425Y1818570D1*
X2119802Y1823323D1*
Y1828131D1*
X2117425Y1832884D1*
X2114993Y1835316D1*
X2107808Y1837693D1*
X2086308D1*
Y1787453D1*
X2103055Y1813761D2*
X2119802Y1787453D1*
X2330890Y1925671D2*
X2352390D1*
X2359575Y1928102D1*
X2362007Y1930479D1*
X2364383Y1935232D1*
Y1940041D1*
X2362007Y1944794D1*
X2359575Y1947226D1*
X2352390Y1949602D1*
X2330890D1*
Y1899362D1*
X2347636Y1925671D2*
X2364383Y1899362D1*
X1448360Y1719386D2*
X1467484Y1669146D1*
X1486607Y1719386D1*
X1516416D2*
X1511608Y1717009D1*
X1506854Y1712201D1*
X1504423Y1707448D1*
X1502046Y1700263D1*
Y1688269D1*
X1504423Y1681139D1*
X1506854Y1676331D1*
X1511608Y1671578D1*
X1516416Y1669146D1*
X1525978D1*
X1530731Y1671578D1*
X1535539Y1676331D1*
X1537916Y1681139D1*
X1540293Y1688269D1*
Y1700263D1*
X1537916Y1707448D1*
X1535539Y1712201D1*
X1530731Y1717009D1*
X1525978Y1719386D1*
X1516416D1*
X1555732D2*
Y1669146D1*
X1584417D1*
X1252345Y1327464D2*
D69*
Y1273874D1*
Y1312165D2*
X1263841Y1323661D1*
X1271535Y1327464D1*
X1282942D1*
X1290636Y1323661D1*
X1294438Y1312165D1*
Y1273874D1*
Y1312165D2*
X1305934Y1323661D1*
X1313628Y1327464D1*
X1325035D1*
X1332729Y1323661D1*
X1336620Y1312165D1*
Y1273874D1*
X1361323Y1327464D2*
Y1289173D1*
X1365125Y1277765D1*
X1372819Y1273874D1*
X1384315D1*
X1391920Y1277765D1*
X1403416Y1289173D1*
Y1327464D2*
Y1273874D1*
X1428119Y1327464D2*
Y1247080D1*
Y1315968D2*
X1435812Y1323573D1*
X1443417Y1327464D1*
X1454914D1*
X1462607Y1323573D1*
X1470212Y1315968D1*
X1474103Y1304472D1*
Y1296778D1*
X1470212Y1285371D1*
X1462607Y1277677D1*
X1454914Y1273874D1*
X1443417D1*
X1435812Y1277677D1*
X1428119Y1285371D1*
X1517907Y1327464D2*
X1510302Y1323661D1*
X1502608Y1315968D1*
X1498806Y1304472D1*
Y1296867D1*
X1502608Y1285371D1*
X1510302Y1277765D1*
X1517907Y1273874D1*
X1529403D1*
X1537097Y1277765D1*
X1544702Y1285371D1*
X1548593Y1296867D1*
Y1304472D1*
X1544702Y1315968D1*
X1537097Y1323661D1*
X1529403Y1327464D1*
X1517907D1*
X1584792Y1354258D2*
Y1289173D1*
X1588594Y1277765D1*
X1596288Y1273874D1*
X1603893D1*
X1573295Y1327464D2*
X1600090D1*
X1296096Y1229257D2*
X1326693Y1148873D1*
X1357290Y1229257D1*
X1404985Y1229169D2*
X1393489Y1225366D1*
X1385795Y1213870D1*
X1381993Y1194769D1*
Y1183273D1*
X1385795Y1164172D1*
X1393489Y1152676D1*
X1404985Y1148873D1*
X1412590D1*
X1424086Y1152676D1*
X1431691Y1164172D1*
X1435582Y1183273D1*
Y1194769D1*
X1431691Y1213870D1*
X1424086Y1225366D1*
X1412590Y1229169D1*
X1404985D1*
X1431691Y1213870D2*
X1385795Y1164172D1*
X1464088Y1156567D2*
X1460285Y1152676D1*
X1464088Y1148873D1*
X1467979Y1152676D1*
X1464088Y1156567D1*
X1507980Y1148873D2*
X1546271Y1229169D1*
X1492681D1*
X1266991Y1129258D2*
Y1048874D1*
Y1090968D2*
X1259386Y1098661D1*
X1251693Y1102464D1*
X1240197D1*
X1232592Y1098661D1*
X1224898Y1090968D1*
X1221096Y1079472D1*
Y1071867D1*
X1224898Y1060371D1*
X1232592Y1052765D1*
X1240197Y1048874D1*
X1251693D1*
X1259386Y1052765D1*
X1266991Y1060371D1*
X1337590Y1102464D2*
Y1048874D1*
Y1090968D2*
X1329985Y1098661D1*
X1322291Y1102464D1*
X1310884D1*
X1303190Y1098661D1*
X1295585Y1090968D1*
X1291694Y1079472D1*
Y1071867D1*
X1295585Y1060371D1*
X1303190Y1052765D1*
X1310884Y1048874D1*
X1322291D1*
X1329985Y1052765D1*
X1337590Y1060371D1*
X1362293Y1129258D2*
Y1048874D1*
Y1090968D2*
X1369986Y1098661D1*
X1377591Y1102464D1*
X1389088D1*
X1396693Y1098661D1*
X1404386Y1090968D1*
X1408189Y1079472D1*
Y1071867D1*
X1404386Y1060371D1*
X1396693Y1052765D1*
X1389088Y1048874D1*
X1377591D1*
X1369986Y1052765D1*
X1362293Y1060371D1*
X1478787Y1102464D2*
Y1048874D1*
Y1090968D2*
X1471182Y1098661D1*
X1463489Y1102464D1*
X1452081D1*
X1444388Y1098661D1*
X1436782Y1090968D1*
X1432891Y1079472D1*
Y1071867D1*
X1436782Y1060371D1*
X1444388Y1052765D1*
X1452081Y1048874D1*
X1463489D1*
X1471182Y1052765D1*
X1478787Y1060371D1*
X1503490Y1102464D2*
Y1048874D1*
Y1087165D2*
X1514986Y1098661D1*
X1522680Y1102464D1*
X1534087D1*
X1541781Y1098661D1*
X1545583Y1087165D1*
Y1048874D1*
X1616182Y1102464D2*
Y1048874D1*
Y1090968D2*
X1608577Y1098661D1*
X1600883Y1102464D1*
X1589476D1*
X1581782Y1098661D1*
X1574177Y1090968D1*
X1570286Y1079472D1*
Y1071867D1*
X1574177Y1060371D1*
X1581782Y1052765D1*
X1589476Y1048874D1*
X1600883D1*
X1608577Y1052765D1*
X1616182Y1060371D1*
X1293736Y1010069D2*
Y1013871D1*
X1297539Y1021565D1*
X1301341Y1025368D1*
X1309035Y1029170D1*
X1324333D1*
X1331938Y1025368D1*
X1335741Y1021565D1*
X1339632Y1013871D1*
Y1006266D1*
X1335741Y998573D1*
X1328136Y987165D1*
X1289845Y948874D1*
X1343434D1*
X1391129Y1029170D2*
X1379633Y1025368D1*
X1371940Y1013871D1*
X1368137Y994770D1*
Y983274D1*
X1371940Y964173D1*
X1379633Y952677D1*
X1391129Y948874D1*
X1398734D1*
X1410230Y952677D1*
X1417835Y964173D1*
X1421726Y983274D1*
Y994770D1*
X1417835Y1013871D1*
X1410230Y1025368D1*
X1398734Y1029170D1*
X1391129D1*
X1417835Y1013871D2*
X1371940Y964173D1*
X1446429Y1013871D2*
X1454123Y1017762D1*
X1465619Y1029170D1*
Y948874D1*
X1540108Y1002464D2*
X1536217Y990968D1*
X1528612Y983274D1*
X1517116Y979472D1*
X1513314D1*
X1501818Y983274D1*
X1494213Y990968D1*
X1490322Y1002464D1*
Y1006266D1*
X1494213Y1017762D1*
X1501818Y1025368D1*
X1513314Y1029170D1*
X1517116D1*
X1528612Y1025368D1*
X1536217Y1017762D1*
X1540108Y1002464D1*
Y983274D1*
X1536217Y964173D1*
X1528612Y952677D1*
X1517116Y948874D1*
X1509511D1*
X1498015Y952677D1*
X1494213Y960371D1*
X2338632Y1348251D2*
D68*
X2341008Y1343498D1*
X2345817Y1338689D1*
X2353002Y1336313D1*
X2357755D1*
X2364940Y1338689D1*
X2369693Y1343498D1*
X2372125Y1348251D1*
Y1355436D1*
X2369693Y1360244D1*
X2364940Y1364998D1*
X2357755Y1367429D1*
X2353002D1*
X2345817Y1364998D1*
X2341009Y1360244D1*
X2338632Y1355436D1*
Y1348251D1*
Y1382869D2*
X2372125D1*
X2348194D2*
X2341009Y1390054D1*
X2338632Y1394862D1*
Y1401992D1*
X2341009Y1406800D1*
X2348194Y1409177D1*
X2372125D1*
X2338632Y1698251D2*
X2341008Y1693498D1*
X2345817Y1688689D1*
X2353002Y1686313D1*
X2357755D1*
X2364940Y1688689D1*
X2369693Y1693498D1*
X2372125Y1698251D1*
Y1705436D1*
X2369693Y1710244D1*
X2364940Y1714998D1*
X2357755Y1717429D1*
X2353002D1*
X2345817Y1714998D1*
X2341009Y1710244D1*
X2338632Y1705436D1*
Y1698251D1*
X2321885Y1751992D2*
Y1747239D1*
X2324262Y1742430D1*
X2331447Y1740054D1*
X2372125D1*
X2338632Y1732869D2*
Y1749615D1*
X2321885Y1786554D2*
Y1781801D1*
X2324262Y1776993D1*
X2331447Y1774616D1*
X2372125D1*
X2338632Y1767431D2*
Y1784178D1*
X403080Y1789624D2*
X405457Y1792056D1*
X403080Y1794433D1*
X400703Y1792056D1*
X403080Y1789624D1*
X419827Y1792056D2*
X460505D1*
X467690Y1789624D1*
X470067Y1784871D1*
Y1780063D1*
X419882Y1838557D2*
X453375D1*
X427067D2*
X422259Y1833804D1*
X419882Y1828995D1*
Y1821865D1*
X422259Y1817057D1*
X427067Y1812304D1*
X434252Y1809872D1*
X439005D1*
X446190Y1812304D1*
X450943Y1817057D1*
X453375Y1821865D1*
Y1828995D1*
X450943Y1833804D1*
X446190Y1838557D1*
X427067Y1882736D2*
X422259Y1877928D1*
X419882Y1873119D1*
Y1865990D1*
X422259Y1861181D1*
X427067Y1856428D1*
X434252Y1853996D1*
X439005D1*
X446190Y1856428D1*
X450943Y1861181D1*
X453375Y1865990D1*
Y1873119D1*
X450943Y1877928D1*
X446190Y1882736D1*
X403135Y1898175D2*
X453375D1*
X419882Y1922107D2*
X443814Y1898175D1*
X434252Y1907737D2*
X453375Y1924484D1*
X403135Y1211313D2*
X453375D1*
X427066D2*
X422258Y1216121D1*
X419881Y1220874D1*
Y1228059D1*
X422258Y1232813D1*
X427066Y1237621D1*
X434251Y1239998D1*
X439005D1*
X446190Y1237621D1*
X450943Y1232812D1*
X453375Y1228059D1*
Y1220874D1*
X450943Y1216121D1*
X446190Y1211313D1*
X419881Y1255437D2*
X443813D1*
X450943Y1257813D1*
X453375Y1262622D1*
Y1269807D1*
X450943Y1274560D1*
X443813Y1281745D1*
X419881D2*
X453375D1*
X419881Y1297184D2*
Y1323493D1*
X453375Y1297184D1*
Y1323493D1*
X419881Y1338932D2*
Y1365240D1*
X453375Y1338932D1*
Y1365240D1*
X434251Y1380679D2*
Y1409364D1*
X429443D1*
X424634Y1406988D1*
X422258Y1404611D1*
X419881Y1399803D1*
Y1392618D1*
X422258Y1387864D1*
X427066Y1383056D1*
X434251Y1380679D1*
X439004D1*
X446190Y1383056D1*
X450943Y1387864D1*
X453375Y1392618D1*
Y1399803D1*
X450943Y1404611D1*
X446190Y1409364D1*
X419881Y1424803D2*
X453375D1*
X434251D2*
X427066Y1427235D1*
X422258Y1431989D1*
X419881Y1436797D1*
Y1443982D1*
M02*
